<svg xmlns="http://www.w3.org/2000/svg" xmlns:xlink="http://www.w3.org/1999/xlink" width="754.608" height="203.698" viewBox="0 0 754.608 203.698">
  <defs>
    <clipPath id="clip-path">
      <path id="path18" d="M414.93-613.469l-26.467-12.852v-29.492l26.467,12.852v29.492M387.7-626.692l-49.489-24.031v-29.493L387.7-656.185v29.493m27.232-17.12-26.467-12.851v-29.493L414.93-673.3v29.492m0-30.341-26.467-12.852V-716.5l26.467,12.851v29.493M387.7-687.376l-49.489-24.032V-740.9L387.7-716.869v29.493"/>
    </clipPath>
    <linearGradient id="linear-gradient" x1="-4.408" y1="5.814" x2="-4.407" y2="5.814" gradientUnits="objectBoundingBox">
      <stop offset="0" stop-color="#fcd376"/>
      <stop offset="1" stop-color="#fcd376"/>
    </linearGradient>
    <clipPath id="clip-path-2">
      <path id="path44" d="M414.93-703.646,388.463-716.5v-.439l26.467,12.861v.428M387.7-716.869,338.209-740.9v-.429L387.7-717.308v.439"/>
    </clipPath>
    <linearGradient id="linear-gradient-2" x1="-4.408" y1="19.673" x2="-4.407" y2="19.673" gradientUnits="objectBoundingBox">
      <stop offset="0" stop-color="#fddd96"/>
      <stop offset="1" stop-color="#fddd96"/>
    </linearGradient>
    <clipPath id="clip-path-3">
      <path id="path70" d="M414.93-613.061l-18.065-8.763-8.4-4.084v-.413l26.467,12.852v.408M387.7-626.28,338.209-650.3v-.421L387.7-626.692v.412"/>
    </clipPath>
    <linearGradient id="linear-gradient-3" x1="-4.408" y1="17.278" x2="-4.407" y2="17.278" xlink:href="#linear-gradient-2"/>
    <clipPath id="clip-path-4">
      <path id="path94" d="M414.93-642.961l-26.467-12.852v-.849l26.467,12.851v.851M387.7-656.185l-49.489-24.031v-.419L387.7-656.612v.427"/>
    </clipPath>
    <linearGradient id="linear-gradient-4" x1="-4.408" y1="18.067" x2="-4.407" y2="18.067" xlink:href="#linear-gradient-2"/>
    <clipPath id="clip-path-5">
      <path id="path118" d="M414.93-673.3l-26.467-12.852v-.849l26.467,12.852v.849M387.7-686.96l-49.489-24.021v-.427L387.7-687.376v.416"/>
    </clipPath>
    <linearGradient id="linear-gradient-5" x1="-4.408" y1="18.67" x2="-4.407" y2="18.67" xlink:href="#linear-gradient-2"/>
    <clipPath id="clip-path-6">
      <path id="path148" d="M338.209-650.722l-.387-.188V-680.4l.387.188v29.493"/>
    </clipPath>
    <linearGradient id="linear-gradient-6" x1="-873.709" y1="22.924" x2="-873.364" y2="22.924" xlink:href="#linear-gradient-2"/>
    <clipPath id="clip-path-7">
      <path id="path170" d="M338.209-650.3l-.387-.188v-.421l.387.188v.421"/>
    </clipPath>
    <linearGradient id="linear-gradient-7" x1="-873.709" y1="1068.163" x2="-873.364" y2="1068.163" gradientUnits="objectBoundingBox">
      <stop offset="0" stop-color="#fde5b0"/>
      <stop offset="1" stop-color="#fde5b0"/>
    </linearGradient>
    <clipPath id="clip-path-8">
      <path id="path194" d="M338.209-711.408l-.387-.187v-29.492l.387.187v29.492"/>
    </clipPath>
    <linearGradient id="linear-gradient-8" x1="-873.709" y1="24.97" x2="-873.364" y2="24.97" xlink:href="#linear-gradient-2"/>
    <clipPath id="clip-path-9">
      <path id="path218" d="M338.209-740.9l-.387-.187v-.431l.387.188v.429"/>
    </clipPath>
    <linearGradient id="linear-gradient-9" x1="-873.709" y1="1201.068" x2="-873.364" y2="1201.068" xlink:href="#linear-gradient-7"/>
    <clipPath id="clip-path-10">
      <path id="path240" d="M338.209-680.216l-.387-.188v-.417l.387.187v.419"/>
    </clipPath>
    <linearGradient id="linear-gradient-10" x1="-873.709" y1="1124.697" x2="-873.364" y2="1124.697" xlink:href="#linear-gradient-7"/>
    <clipPath id="clip-path-11">
      <path id="path262" d="M338.209-710.981l-.387-.188v-.425l.387.187v.427"/>
    </clipPath>
    <linearGradient id="linear-gradient-11" x1="-873.709" y1="1160.186" x2="-873.364" y2="1160.186" xlink:href="#linear-gradient-7"/>
    <clipPath id="clip-path-12">
      <path id="path306" d="M415.312-613.284l-.383-.185v-29.492l.383.185v29.492m0-30.341-.383-.187V-673.3l.383.185v29.493m0-30.343-.383-.185v-29.493l.383.187v29.492"/>
    </clipPath>
    <linearGradient id="linear-gradient-12" x1="-1084.269" y1="7.787" x2="-1083.921" y2="7.787" xlink:href="#linear-gradient-2"/>
    <clipPath id="clip-path-13">
      <path id="path326" d="M415.312-703.46l-.383-.187v-.428l.383.187v.428"/>
    </clipPath>
    <linearGradient id="linear-gradient-13" x1="-1084.269" y1="1145.494" x2="-1083.921" y2="1145.494" xlink:href="#linear-gradient-7"/>
    <clipPath id="clip-path-14">
      <path id="path346" d="M415.312-612.876l-.383-.185v-.408l.383.185v.408"/>
    </clipPath>
    <linearGradient id="linear-gradient-14" x1="-1084.269" y1="1033.894" x2="-1083.921" y2="1033.894" xlink:href="#linear-gradient-7"/>
    <clipPath id="clip-path-15">
      <path id="path366" d="M415.312-642.776l-.383-.185v-.851l.383.187v.849"/>
    </clipPath>
    <linearGradient id="linear-gradient-15" x1="-1084.269" y1="621.44" x2="-1083.921" y2="621.44" xlink:href="#linear-gradient-7"/>
    <clipPath id="clip-path-16">
      <path id="path386" d="M415.312-673.118l-.383-.185v-.849l.383.185v.849"/>
    </clipPath>
    <linearGradient id="linear-gradient-16" x1="-1084.269" y1="651.546" x2="-1083.921" y2="651.546" xlink:href="#linear-gradient-7"/>
    <clipPath id="clip-path-17">
      <path id="path408" d="M388.463-626.321l-.765-.371v-29.493l.765.372v29.492m0-30.341-.379-.184v-29.492l.379.183v29.493m0-30.343-.765-.371v-29.493l.765.372V-687"/>
    </clipPath>
    <linearGradient id="linear-gradient-17" x1="-506.576" y1="7.917" x2="-506.402" y2="7.917" xlink:href="#linear-gradient-2"/>
    <clipPath id="clip-path-18">
      <path id="path428" d="M388.463-716.5l-.765-.372v-.439l.387.188.379.184v.439"/>
    </clipPath>
    <linearGradient id="linear-gradient-18" x1="-506.576" y1="884.828" x2="-506.402" y2="884.828" xlink:href="#linear-gradient-7"/>
    <clipPath id="clip-path-19">
      <path id="path448" d="M388.463-625.908l-.379-.184-.387-.188v-.412l.765.371v.413"/>
    </clipPath>
    <linearGradient id="linear-gradient-19" x1="-506.576" y1="799.37" x2="-506.402" y2="799.37" xlink:href="#linear-gradient-7"/>
    <clipPath id="clip-path-20">
      <path id="path468" d="M388.463-655.813l-.765-.372v-.427l.387.188v-.423l.379.184v.849"/>
    </clipPath>
    <linearGradient id="linear-gradient-20" x1="-506.576" y1="635.659" x2="-506.402" y2="635.659" xlink:href="#linear-gradient-7"/>
    <clipPath id="clip-path-21">
      <path id="path488" d="M388.463-686.156l-.379-.183v-.433l-.387-.188v-.416l.765.371v.849"/>
    </clipPath>
    <linearGradient id="linear-gradient-21" x1="-506.576" y1="563.4" x2="-506.402" y2="563.4" xlink:href="#linear-gradient-7"/>
  </defs>
  <g id="g10" transform="translate(-289.361 768.514)">
    <g id="g12">
      <g id="g14">
        <g id="g16" clip-path="url(#clip-path)">
          <path id="path30" d="M414.93-613.469l-26.467-12.852v-29.492l26.467,12.852v29.492M387.7-626.692l-49.489-24.031v-29.493L387.7-656.185v29.493m27.232-17.12-26.467-12.851v-29.493L414.93-673.3v29.492m0-30.341-26.467-12.852V-716.5l26.467,12.851v29.493M387.7-687.376l-49.489-24.032V-740.9L387.7-716.869v29.493" fill="url(#linear-gradient)"/>
        </g>
      </g>
      <path id="path32" d="M337.822-741.517v148.358l-27.228,13.216V-728.3l27.228-13.216" fill="#b48a41"/>
      <path id="path34" d="M289.694-569.356l-.333-.688,20.851-10.125v.851l-20.517,9.963m21.283-10.335v-.437l26.467-12.847v.433l-26.467,12.851m27.232-13.223v-.849l28.616-13.9.335.688-28.951,14.057" fill="#fff"/>
      <path id="path36" d="M310.977-580.128v-.412l26.467-12.852v.417l-26.467,12.847" fill="#c5a365"/>
      <path id="path38" d="M436.211-693.313,415.7-703.274v-.849L436.546-694l-.335.687M414.93-704.074l-26.467-12.861v-.411L414.93-704.5v.421M387.7-717.308l-49.489-24.021v-.42L387.7-717.718v.411" fill="#fff"/>
      <g id="g40">
        <g id="g42" clip-path="url(#clip-path-2)">
          <path id="path56" d="M414.93-703.646,388.463-716.5v-.439l26.467,12.861v.428M387.7-716.869,338.209-740.9v-.429L387.7-717.308v.439" fill="url(#linear-gradient-2)"/>
        </g>
      </g>
      <path id="path58" d="M337.378-741.3l-26.4-12.82v-.849l26.467,12.852v.787l-.065.031m-27.167-13.191-20.851-10.125.333-.687,20.517,9.963v.849" fill="#fff"/>
      <path id="path60" d="M337.443-741.27l-.065-.032.065-.031v.063" fill="#c5a365"/>
      <path id="path62" d="M289.527-673.936h0" fill="#fff"/>
      <path id="path64" d="M436.211-602.287,415.7-612.249v-.849l20.851,10.125-.335.687M414.93-612.62l-26.467-12.852v-.436l8.4,4.084,18.065,8.763v.441M387.7-625.843l-49.489-24.031v-.428L387.7-626.28v.437" fill="#fff"/>
      <g id="g66">
        <g id="g68" clip-path="url(#clip-path-3)">
          <path id="path82" d="M414.93-613.061l-18.065-8.763-8.4-4.084v-.413l26.467,12.852v.408M387.7-626.28,338.209-650.3v-.421L387.7-626.692v.412" fill="url(#linear-gradient-3)"/>
        </g>
      </g>
      <path id="path84" d="M310.211-663.466l-20.851-10.125.167-.344.167-.343,20.517,9.961v.851" fill="#fff"/>
      <path id="path86" d="M337.443-650.245,310.977-663.1v-.849l26.467,12.851v.849" fill="#c5a365"/>
      <path id="path88" d="M436.211-632.628,415.7-642.591v-.849l20.851,10.124-.335.688M387.7-656.612l-49.489-24.023v-.431L387.7-657.034v.423" fill="#fff"/>
      <g id="g90">
        <g id="g92" clip-path="url(#clip-path-4)">
          <path id="path106" d="M414.93-642.961l-26.467-12.852v-.849l26.467,12.851v.851M387.7-656.185l-49.489-24.031v-.419L387.7-656.612v.427" fill="url(#linear-gradient-4)"/>
        </g>
      </g>
      <path id="path108" d="M310.211-693.81l-20.851-10.124.333-.688,20.517,9.963v.849" fill="#fff"/>
      <path id="path110" d="M337.443-680.586l-26.467-12.852v-.849l26.467,12.851v.851" fill="#c5a365"/>
      <path id="path112" d="M436.211-662.969l-20.516-9.963v-.849l20.851,10.124-.335.688M387.7-686.526l-49.489-24.032v-.423L387.7-686.96v.433" fill="#fff"/>
      <g id="g114">
        <g id="g116" clip-path="url(#clip-path-5)">
          <path id="path130" d="M414.93-673.3l-26.467-12.852v-.849l26.467,12.852v.849M387.7-686.96l-49.489-24.021v-.427L387.7-687.376v.416" fill="url(#linear-gradient-5)"/>
        </g>
      </g>
      <path id="path132" d="M337.443-710.929l-21.115-10.253.335-.687,20.78,10.091v.849" fill="#c5a365"/>
      <path id="path134" d="M337.826-574.492h0m0-180.8h0" fill="#fff"/>
      <path id="path136" d="M338.209-574.492h-.765v-18.049l.765-.372v18.421m-.387-19.084v-56.485l.387.188v56.111l-.387.187" fill="#fff"/>
      <path id="path138" d="M337.443-593.392v-56.853l.379.184v56.485l-.379.184" fill="#c5a365"/>
      <path id="path140" d="M337.443-592.541v-.433l.379-.184v-.417l.387-.187v.849l-.765.372" fill="#fff"/>
      <path id="path142" d="M337.443-592.975v-.417l.379-.184v.417l-.379.184" fill="#d2b785"/>
      <g id="g144">
        <g id="g146" clip-path="url(#clip-path-6)">
          <path id="path160" d="M338.209-650.722l-.387-.188V-680.4l.387.188v29.493" fill="url(#linear-gradient-6)"/>
        </g>
      </g>
      <path id="path162" d="M337.822-650.91l-.379-.184v-29.492l.379.183v29.493" fill="#c5a365"/>
      <path id="path164" d="M338.209-649.873l-.387-.188v-.428l.387.188v.428" fill="#fff"/>
      <g id="g166">
        <g id="g168" clip-path="url(#clip-path-7)">
          <path id="path182" d="M338.209-650.3l-.387-.188v-.421l.387.188v.421" fill="url(#linear-gradient-7)"/>
        </g>
      </g>
      <path id="path184" d="M337.822-650.061l-.379-.184v-.849l.379.184v.849" fill="#d2b785"/>
      <path id="path186" d="M338.209-681.065l-.387-.188v-29.492l.387.187v29.493" fill="#fff"/>
      <path id="path188" d="M337.822-681.253l-.379-.184v-29.492l.379.184v29.492" fill="#c5a365"/>
      <g id="g190">
        <g id="g192" clip-path="url(#clip-path-8)">
          <path id="path206" d="M338.209-711.408l-.387-.187v-29.492l.387.187v29.492" fill="url(#linear-gradient-8)"/>
        </g>
      </g>
      <path id="path208" d="M337.822-711.594l-.379-.184V-741.27l.379.184v29.492" fill="#c5a365"/>
      <path id="path210" d="M338.209-741.749l-.765-.371v-13.172h.765v13.543" fill="#fff"/>
      <path id="path212" d="M338.209-741.329l-.387-.188-.379.184v-.787l.765.371v.42" fill="#fff"/>
      <g id="g214">
        <g id="g216" clip-path="url(#clip-path-9)">
          <path id="path230" d="M338.209-740.9l-.387-.187v-.431l.387.188v.429" fill="url(#linear-gradient-9)"/>
        </g>
      </g>
      <path id="path232" d="M337.822-741.086l-.379-.184v-.063l.379-.184v.431" fill="#d2b785"/>
      <path id="path234" d="M338.209-680.634l-.387-.187v-.432l.387.188v.431" fill="#fff"/>
      <g id="g236">
        <g id="g238" clip-path="url(#clip-path-10)">
          <path id="path252" d="M338.209-680.216l-.387-.188v-.417l.387.187v.419" fill="url(#linear-gradient-10)"/>
        </g>
      </g>
      <path id="path254" d="M337.822-680.4l-.379-.183v-.851l.379.184v.849" fill="#d2b785"/>
      <path id="path256" d="M338.209-710.558l-.387-.187v-.424l.387.188v.423" fill="#fff"/>
      <g id="g258">
        <g id="g260" clip-path="url(#clip-path-11)">
          <path id="path274" d="M338.209-710.981l-.387-.188v-.425l.387.187v.427" fill="url(#linear-gradient-11)"/>
        </g>
      </g>
      <path id="path276" d="M337.822-710.745l-.379-.184v-.849l.379.184v.849" fill="#d2b785"/>
      <path id="path278" d="M310.594-768.514h0" fill="#fff"/>
      <path id="path280" d="M310.977-564.816h-.765v-14.5l.765-.372v14.875m-.765-15.353v-83.3l.383.185v82.927l-.383.185m.383-83.961-.383-.187V-693.81l.383.187v29.493m0-30.344-.383-.185v-59.833l.765.371v25.636l-.383.185v33.827m.383-60.5-.765-.371v-13.172h.765v13.543" fill="#fff"/>
      <path id="path282" d="M310.594-580.355v-82.926l.383.185v82.556l-.383.185m.383-83.591-.383-.185v-29.493l.383.185v29.493m0-30.343-.383-.187V-728.3l.383-.185v34.2" fill="#c5a365"/>
      <path id="path284" d="M310.211-579.319v-.851l.383-.185v.412l.383-.185v.437l-.765.372" fill="#fff"/>
      <path id="path286" d="M310.594-579.943v-.412l.383-.185v.412l-.383.185" fill="#d2b785"/>
      <path id="path288" d="M310.977-754.122l-.765-.371v-.849l.765.371v.849" fill="#fff"/>
      <path id="path290" d="M310.594-663.281l-.383-.185v-.851l.383.187v.849" fill="#fff"/>
      <path id="path292" d="M310.977-663.1l-.383-.185v-.849l.383.185v.849" fill="#d2b785"/>
      <path id="path294" d="M310.594-693.624l-.383-.187v-.849l.383.185v.851" fill="#fff"/>
      <path id="path296" d="M310.977-693.438l-.383-.185v-.851l.383.187v.849" fill="#d2b785"/>
      <path id="path298" d="M415.311-753.548h0" fill="#fff"/>
      <path id="path300" d="M415.695-574.492h-.765V-612.62l.765.371v37.757m0-38.607-.383-.185v-29.492l.383.185V-613.1m0-30.341-.383-.185v-29.493l.383.187v29.492m0-30.341-.383-.187V-703.46l.383.185v29.493m0-30.343-.765-.372v-49.052h.765v49.424" fill="#fff"/>
      <g id="g302">
        <g id="g304" clip-path="url(#clip-path-12)">
          <path id="path318" d="M415.312-613.284l-.383-.185v-29.492l.383.185v29.492m0-30.341-.383-.187V-673.3l.383.185v29.493m0-30.343-.383-.185v-29.493l.383.187v29.492" fill="url(#linear-gradient-12)"/>
        </g>
      </g>
      <path id="path320" d="M415.695-703.274l-.383-.185v-.428l-.383-.187v-.421l.765.372v.849" fill="#fff"/>
      <g id="g322">
        <g id="g324" clip-path="url(#clip-path-13)">
          <path id="path338" d="M415.312-703.46l-.383-.187v-.428l.383.187v.428" fill="url(#linear-gradient-13)"/>
        </g>
      </g>
      <path id="path340" d="M415.695-612.249l-.765-.371v-.441l.383.185v-.408l.383.185v.849" fill="#fff"/>
      <g id="g342">
        <g id="g344" clip-path="url(#clip-path-14)">
          <path id="path358" d="M415.312-612.876l-.383-.185v-.408l.383.185v.408" fill="url(#linear-gradient-14)"/>
        </g>
      </g>
      <path id="path360" d="M415.695-642.59l-.383-.185v-.849l.383.185v.849" fill="#fff"/>
      <g id="g362">
        <g id="g364" clip-path="url(#clip-path-15)">
          <path id="path378" d="M415.312-642.776l-.383-.185v-.851l.383.187v.849" fill="url(#linear-gradient-15)"/>
        </g>
      </g>
      <path id="path380" d="M415.695-672.932l-.383-.187v-.849l.383.187v.849" fill="#fff"/>
      <g id="g382">
        <g id="g384" clip-path="url(#clip-path-16)">
          <path id="path398" d="M415.312-673.118l-.383-.185v-.849l.383.185v.849" fill="url(#linear-gradient-16)"/>
        </g>
      </g>
      <path id="path400" d="M388.08-730.889h0" fill="#fff"/>
      <path id="path402" d="M388.463-607.659H387.7v-18.184l.765.371v17.813m-.379-49.188-.387-.188v-29.492l.387.188v29.492m.379-60.5-.765-.372v-13.171h.765v13.543" fill="#fff"/>
      <g id="g404">
        <g id="g406" clip-path="url(#clip-path-17)">
          <path id="path420" d="M388.463-626.321l-.765-.371v-29.493l.765.372v29.492m0-30.341-.379-.184v-29.492l.379.183v29.493m0-30.343-.765-.371v-29.493l.765.372V-687" fill="url(#linear-gradient-17)"/>
        </g>
      </g>
      <path id="path422" d="M388.463-716.936l-.379-.184-.387-.188v-.411l.765.372v.411" fill="#fff"/>
      <g id="g424">
        <g id="g426" clip-path="url(#clip-path-18)">
          <path id="path440" d="M388.463-716.5l-.765-.372v-.439l.387.188.379.184v.439" fill="url(#linear-gradient-18)"/>
        </g>
      </g>
      <path id="path442" d="M388.463-625.472l-.765-.371v-.437l.387.188.379.184v.436" fill="#fff"/>
      <g id="g444">
        <g id="g446" clip-path="url(#clip-path-19)">
          <path id="path460" d="M388.463-625.908l-.379-.184-.387-.188v-.412l.765.371v.413" fill="url(#linear-gradient-19)"/>
        </g>
      </g>
      <path id="path462" d="M388.084-656.424l-.387-.188v-.423l.387.188v.423" fill="#fff"/>
      <g id="g464">
        <g id="g466" clip-path="url(#clip-path-20)">
          <path id="path480" d="M388.463-655.813l-.765-.372v-.427l.387.188v-.423l.379.184v.849" fill="url(#linear-gradient-20)"/>
        </g>
      </g>
      <path id="path482" d="M388.084-686.338l-.387-.188v-.433l.387.188v.433" fill="#fff"/>
      <g id="g484">
        <g id="g486" clip-path="url(#clip-path-21)">
          <path id="path500" d="M388.463-686.156l-.379-.183v-.433l-.387-.188v-.416l.765.371v.849" fill="url(#linear-gradient-21)"/>
        </g>
      </g>
      <path id="path502" d="M519.973-706.1h-31.46v40.681h31.368a20.277,20.277,0,0,0,20.112-20.387,20.239,20.239,0,0,0-20.02-20.295Zm0,44.373h-31.46v11.717h-3.875V-709.8h35.243A24.077,24.077,0,0,1,543.96-685.81a24.077,24.077,0,0,1-23.987,24.079" fill="#fff"/>
      <path id="path504" d="M590.085-706.1H558.443v40.681h31.551a20.081,20.081,0,0,0,19.927-20.2c0-11.068-8.949-20.477-19.835-20.477Zm7.38,43.176,11.44,10.7-2.492,2.86-13.284-12.544c-1.015.091-2.029.183-3.044.183H558.443v11.717h-3.875V-709.8h35.425a24.2,24.2,0,0,1,23.893,24.169,23.835,23.835,0,0,1-16.421,22.7" fill="#fff"/>
      <path id="path506" d="M654.845-652.322a27.483,27.483,0,0,0,27.308-27.584,27.484,27.484,0,0,0-27.308-27.584,27.483,27.483,0,0,0-27.307,27.584A27.482,27.482,0,0,0,654.845-652.322Zm0-58.86a31.3,31.3,0,0,1,31.275,31.276,31.3,31.3,0,0,1-31.275,31.276,31.3,31.3,0,0,1-31.273-31.276,31.3,31.3,0,0,1,31.273-31.276" fill="#fff"/>
      <path id="path508" d="M752.265-650.014l-51.663-53.6v53.6h-3.873V-709.8h3.32l51.663,53.6v-53.6h3.873v59.783h-3.32" fill="#fff"/>
      <path id="path510" d="M814.075-665.424l-18.636-39.023h-.369l-18.636,39.023Zm-17.621-45.3,28.875,59.692-3.413,1.659-6-12.361H774.589l-6,12.361-3.413-1.659,28.877-59.692h2.4" fill="#fff"/>
      <path id="path512" d="M838.8-650.014h-3.873V-709.8H838.8v59.783" fill="#fff"/>
      <path id="path514" d="M907.9-649.37l-34.505-28.781-18.727,14.391v13.747H850.79V-709.8h3.875v41.421l53.414-42.249,2.215,3.135-34.041,26.94,34.041,28.412-2.4,2.768" fill="#fff"/>
      <path id="path516" d="M943.228-652.322a27.483,27.483,0,0,0,27.308-27.584,27.484,27.484,0,0,0-27.308-27.584,27.483,27.483,0,0,0-27.307,27.584A27.482,27.482,0,0,0,943.228-652.322Zm0-58.86A31.3,31.3,0,0,1,974.5-679.906a31.3,31.3,0,0,1-31.275,31.276,31.3,31.3,0,0,1-31.273-31.276,31.3,31.3,0,0,1,31.273-31.276" fill="#fff"/>
      <path id="path518" d="M1040.648-650.014l-51.663-53.6v53.6H985.11V-709.8h3.323l51.663,53.6v-53.6h3.875v59.783h-3.321" fill="#fff"/>
      <path id="path520" d="M485.688-614.9h3.179a3.357,3.357,0,0,0,2.328-.727,2.594,2.594,0,0,0,.8-2.023,2.713,2.713,0,0,0-.8-2.053,3.2,3.2,0,0,0-2.264-.781h-3.247Zm0,.885v5.056h-1.049v-12.412h4.228a4.457,4.457,0,0,1,3.056.988,3.44,3.44,0,0,1,1.121,2.72,3.409,3.409,0,0,1-1.077,2.7,4.591,4.591,0,0,1-3.125.949h-3.153" fill="#fcd376"/>
      <path id="path522" d="M496.857-615.024h3.213a2.976,2.976,0,0,0,2.123-.752,2.549,2.549,0,0,0,.8-1.947,2.557,2.557,0,0,0-.836-2.04,3.459,3.459,0,0,0-2.344-.725h-2.957Zm3.605.887h-3.605v5.175H495.8v-12.412h4.033a4.6,4.6,0,0,1,3.1.961,3.361,3.361,0,0,1,1.117,2.691,3.36,3.36,0,0,1-.7,2.1,3.571,3.571,0,0,1-1.875,1.26l3.1,5.285v.111h-1.116l-3-5.175" fill="#fcd376"/>
      <path id="path524" d="M515.468-615.843a5.486,5.486,0,0,0-1.015-3.512,3.363,3.363,0,0,0-2.779-1.271,3.357,3.357,0,0,0-2.757,1.275,5.533,5.533,0,0,0-1.028,3.56v1.295a5.491,5.491,0,0,0,1.023,3.5,3.356,3.356,0,0,0,2.779,1.292,3.332,3.332,0,0,0,2.78-1.275,5.631,5.631,0,0,0,1-3.551Zm1.048,1.347a7.172,7.172,0,0,1-.592,3.009,4.512,4.512,0,0,1-1.692,1.995,4.629,4.629,0,0,1-2.541.7,4.41,4.41,0,0,1-3.512-1.556,6.221,6.221,0,0,1-1.337-4.2v-1.279a7.144,7.144,0,0,1,.6-3.005,4.6,4.6,0,0,1,1.7-2.012,4.6,4.6,0,0,1,2.532-.7,4.636,4.636,0,0,1,2.527.691,4.527,4.527,0,0,1,1.692,1.952,7.019,7.019,0,0,1,.623,2.924v1.483" fill="#fcd376"/>
      <path id="path526" d="M525.077-621.374h1.056v8.72a3.859,3.859,0,0,1-1.019,2.813,3.634,3.634,0,0,1-2.732,1.049,3.818,3.818,0,0,1-2.779-.947,3.516,3.516,0,0,1-.972-2.643h1.049a2.673,2.673,0,0,0,.707,2.024,2.767,2.767,0,0,0,1.995.679,2.54,2.54,0,0,0,1.931-.785,3.022,3.022,0,0,0,.764-2.131v-8.78" fill="#fcd376"/>
      <path id="path528" d="M536.493-614.913h-5.805v5.064h6.675v.887h-7.724v-12.412h7.681v.887h-6.632v4.688h5.805v.887" fill="#fcd376"/>
      <path id="path530" d="M542.8-615.125l-1.747,1.721v4.441h-1.049v-12.412h1.049v6.692l6.359-6.692h1.321l-5.2,5.524,5.6,6.888h-1.279l-5.056-6.163" fill="#fcd376"/>
      <path id="path532" d="M559.88-620.488h-4.253v11.525h-1.049v-11.525h-4.245v-.887h9.548v.887" fill="#fcd376"/>
      <path id="path534" d="M563.6-608.962h-1.049v-12.412H563.6v12.412" fill="#fcd376"/>
      <path id="path536" d="M568.435-615.024h3.213a2.976,2.976,0,0,0,2.123-.752,2.549,2.549,0,0,0,.8-1.947,2.557,2.557,0,0,0-.836-2.04,3.459,3.459,0,0,0-2.344-.725h-2.957Zm3.605.887h-3.605v5.175h-1.059v-12.412h4.033a4.6,4.6,0,0,1,3.1.961,3.361,3.361,0,0,1,1.117,2.691,3.36,3.36,0,0,1-.7,2.1,3.571,3.571,0,0,1-1.875,1.26l3.1,5.285v.111h-1.116l-3-5.175" fill="#fcd376"/>
      <path id="path538" d="M580.311-613.336h4.979L582.8-620.1Zm5.311.887h-5.635l-1.279,3.487h-1.1l4.7-12.412h1l4.7,12.412h-1.092l-1.287-3.487" fill="#fcd376"/>
      <path id="path540" d="M599.5-608.962h-1.049l-7.135-10.623v10.623H590.26v-12.412h1.057l7.144,10.631v-10.631h1.04v12.412" fill="#fcd376"/>
      <path id="path542" d="M608.573-621.374h1.057v8.72a3.865,3.865,0,0,1-1.019,2.813,3.636,3.636,0,0,1-2.732,1.049,3.824,3.824,0,0,1-2.78-.947,3.516,3.516,0,0,1-.972-2.643h1.049a2.678,2.678,0,0,0,.707,2.024,2.77,2.77,0,0,0,2,.679,2.542,2.542,0,0,0,1.931-.785,3.016,3.016,0,0,0,.763-2.131v-8.78" fill="#fcd376"/>
      <path id="path544" d="M619.989-614.913h-5.805v5.064h6.675v.887h-7.723v-12.412h7.68v.887h-6.632v4.688h5.805v.887" fill="#fcd376"/>
      <path id="path546" d="M633.676-606.661h-.86v-14.713h.86v14.713" fill="#fcd376"/>
      <path id="path548" d="M655.761-608.962h-1.049l-7.135-10.623v10.623H646.52v-12.412h1.057l7.144,10.631v-10.631h1.04v12.412" fill="#fcd376"/>
      <path id="path550" d="M660.894-613.336h4.979l-2.489-6.76Zm5.311.887H660.57l-1.279,3.487h-1.1l4.7-12.412h1l4.7,12.412h-1.092l-1.287-3.487" fill="#fcd376"/>
      <path id="path552" d="M671.893-620.488v10.639h2.352a4.054,4.054,0,0,0,3.147-1.3,5.028,5.028,0,0,0,1.185-3.519v-1.092a4.912,4.912,0,0,0-1.168-3.431,3.981,3.981,0,0,0-3.077-1.3Zm-1.048,11.525v-12.412h3.469a5.4,5.4,0,0,1,2.736.695,4.8,4.8,0,0,1,1.888,1.991,6.266,6.266,0,0,1,.679,2.949v1.143a6.263,6.263,0,0,1-.675,2.949,4.8,4.8,0,0,1-1.9,1.987,5.569,5.569,0,0,1-2.809.7h-3.392" fill="#fcd376"/>
      <path id="path554" d="M682.985-609.849h7.664v.887h-8.933v-.793l7.365-10.732h-7.144v-.887h8.44v.743l-7.392,10.783" fill="#fcd376"/>
      <path id="path556" d="M701.3-615.843a5.486,5.486,0,0,0-1.013-3.512,3.368,3.368,0,0,0-2.78-1.271,3.361,3.361,0,0,0-2.757,1.275,5.533,5.533,0,0,0-1.028,3.56v1.295a5.492,5.492,0,0,0,1.023,3.5,3.359,3.359,0,0,0,2.78,1.292,3.328,3.328,0,0,0,2.779-1.275,5.631,5.631,0,0,0,1-3.551Zm1.049,1.347a7.151,7.151,0,0,1-.593,3.009,4.512,4.512,0,0,1-1.692,1.995,4.629,4.629,0,0,1-2.54.7,4.408,4.408,0,0,1-3.512-1.556,6.214,6.214,0,0,1-1.339-4.2v-1.279a7.143,7.143,0,0,1,.6-3.005,4.6,4.6,0,0,1,1.7-2.012,4.605,4.605,0,0,1,2.532-.7,4.644,4.644,0,0,1,2.528.691,4.536,4.536,0,0,1,1.692,1.952,7.04,7.04,0,0,1,.623,2.924v1.483" fill="#fcd376"/>
      <path id="path558" d="M706.458-615.024h3.213a2.976,2.976,0,0,0,2.123-.752,2.549,2.549,0,0,0,.8-1.947,2.561,2.561,0,0,0-.835-2.04,3.465,3.465,0,0,0-2.345-.725h-2.957Zm3.605.887h-3.605v5.175H705.4v-12.412h4.033a4.6,4.6,0,0,1,3.1.961,3.36,3.36,0,0,1,1.116,2.691,3.366,3.366,0,0,1-.7,2.1,3.57,3.57,0,0,1-1.875,1.26l3.1,5.285v.111h-1.116l-3-5.175" fill="#fcd376"/>
      <path id="path560" d="M727.118-606.661h-.861v-14.713h.861v14.713" fill="#fcd376"/>
      <path id="path562" d="M741.241-608.962h-1.049v-12.412h1.049v12.412" fill="#fcd376"/>
      <path id="path564" d="M745.513-609.849h7.664v.887h-8.935v-.793l7.365-10.732h-7.143v-.887H752.9v.743l-7.391,10.783" fill="#fcd376"/>
      <path id="path566" d="M759.665-610.5l.068.264.077-.264,3.905-10.877h1.151l-4.621,12.412h-1.007l-4.619-12.412h1.141l3.9,10.877" fill="#fcd376"/>
      <path id="path568" d="M775.139-615.843a5.486,5.486,0,0,0-1.013-3.512,3.368,3.368,0,0,0-2.78-1.271,3.359,3.359,0,0,0-2.757,1.275,5.532,5.532,0,0,0-1.028,3.56v1.295a5.484,5.484,0,0,0,1.024,3.5,3.354,3.354,0,0,0,2.779,1.292,3.328,3.328,0,0,0,2.779-1.275,5.631,5.631,0,0,0,1-3.551Zm1.048,1.347a7.151,7.151,0,0,1-.592,3.009,4.517,4.517,0,0,1-1.691,1.995,4.633,4.633,0,0,1-2.541.7,4.408,4.408,0,0,1-3.512-1.556,6.221,6.221,0,0,1-1.339-4.2v-1.279a7.123,7.123,0,0,1,.6-3.005,4.6,4.6,0,0,1,1.7-2.012,4.6,4.6,0,0,1,2.531-.7,4.644,4.644,0,0,1,2.528.691,4.544,4.544,0,0,1,1.692,1.952,7.021,7.021,0,0,1,.621,2.924v1.483" fill="#fcd376"/>
      <path id="path570" d="M783.2-614.836h-2.625v4.987h2.311a4.1,4.1,0,0,0,3.188-1.3,5.028,5.028,0,0,0,1.185-3.519v-1.092a4.907,4.907,0,0,0-1.169-3.431,3.979,3.979,0,0,0-3.077-1.3h-2.437v4.781H783.2Zm-3.673,5.873v-5.873h-1.544v-.871h1.544v-5.668h3.469a5.4,5.4,0,0,1,2.736.695,4.805,4.805,0,0,1,1.889,1.991,6.282,6.282,0,0,1,.677,2.949v1.143a6.278,6.278,0,0,1-.673,2.949,4.81,4.81,0,0,1-1.9,1.987,5.57,5.57,0,0,1-2.809.7h-3.392" fill="#fcd376"/>
      <path id="path572" d="M798.246-614.913h-5.807v5.064h6.676v.887h-7.724v-12.412h7.68v.887h-6.632v4.688h5.807v.887" fill="#fcd376"/>
      <path id="path574" d="M811-608.962h-1.047l-7.136-10.623v10.623h-1.056v-12.412h1.056l7.144,10.631v-10.631H811v12.412" fill="#fcd376"/>
      <path id="path576" d="M820.071-621.374h1.056v8.72a3.864,3.864,0,0,1-1.017,2.813,3.637,3.637,0,0,1-2.733,1.049,3.823,3.823,0,0,1-2.779-.947,3.515,3.515,0,0,1-.971-2.643h1.048a2.678,2.678,0,0,0,.707,2.024,2.769,2.769,0,0,0,1.995.679,2.543,2.543,0,0,0,1.932-.785,3.015,3.015,0,0,0,.763-2.131v-8.78" fill="#fcd376"/>
      <path id="path578" d="M831.489-614.913h-5.807v5.064h6.676v.887h-7.724v-12.412h7.68v.887h-6.632v4.688h5.807v.887" fill="#fcd376"/>
      <path id="path580" d="M845.175-606.661h-.861v-14.713h.861v14.713" fill="#fcd376"/>
      <path id="path582" d="M860.815-615.125l-1.748,1.721v4.441h-1.048v-12.412h1.048v6.692l6.359-6.692h1.323l-5.2,5.524,5.6,6.888h-1.277l-5.056-6.163" fill="#fcd376"/>
      <path id="path584" d="M877.328-615.843a5.486,5.486,0,0,0-1.013-3.512,3.364,3.364,0,0,0-2.78-1.271,3.361,3.361,0,0,0-2.757,1.275,5.532,5.532,0,0,0-1.027,3.56v1.295a5.483,5.483,0,0,0,1.023,3.5,3.355,3.355,0,0,0,2.78,1.292,3.327,3.327,0,0,0,2.777-1.275,5.623,5.623,0,0,0,1-3.551Zm1.049,1.347a7.171,7.171,0,0,1-.592,3.009,4.529,4.529,0,0,1-1.692,1.995,4.628,4.628,0,0,1-2.54.7,4.4,4.4,0,0,1-3.512-1.556,6.214,6.214,0,0,1-1.34-4.2v-1.279a7.143,7.143,0,0,1,.6-3.005,4.6,4.6,0,0,1,1.7-2.012,4.6,4.6,0,0,1,2.531-.7,4.649,4.649,0,0,1,2.529.691,4.533,4.533,0,0,1,1.691,1.952,7,7,0,0,1,.623,2.924v1.483" fill="#fcd376"/>
      <path id="path586" d="M890.7-608.962H889.65l-7.136-10.623v10.623h-1.056v-12.412h1.056l7.144,10.631v-10.631H890.7v12.412" fill="#fcd376"/>
      <path id="path588" d="M894.758-609.849h7.664v.887h-8.935v-.793l7.365-10.732h-7.144v-.887h8.44v.743l-7.391,10.783" fill="#fcd376"/>
      <path id="path590" d="M906.667-613.336h4.979l-2.488-6.76Zm5.312.887h-5.636l-1.277,3.487h-1.1l4.7-12.412h1l4.7,12.412h-1.091l-1.287-3.487" fill="#fcd376"/>
      <path id="path592" d="M917.675-609.849H923.8v.887h-7.187v-12.412h1.057v11.525" fill="#fcd376"/>
      <path id="path594" d="M932.33-620.488h-4.253v11.525h-1.049v-11.525h-4.245v-.887h9.548v.887" fill="#fcd376"/>
      <path id="path596" d="M936.05-608.962H935v-12.412h1.048v12.412" fill="#fcd376"/>
      <path id="path598" d="M949.094-608.962h-1.048l-7.135-10.623v10.623h-1.057v-12.412h1.057l7.143,10.631v-10.631h1.04v12.412" fill="#fcd376"/>
      <path id="path600" d="M961.644-610.437a3.512,3.512,0,0,1-1.709,1.211,7.409,7.409,0,0,1-2.6.435,4.833,4.833,0,0,1-2.592-.7,4.648,4.648,0,0,1-1.756-1.977,6.7,6.7,0,0,1-.631-2.932v-1.569a6,6,0,0,1,1.3-4.079,4.415,4.415,0,0,1,3.5-1.5,4.653,4.653,0,0,1,3.085.976,4.035,4.035,0,0,1,1.391,2.689h-1.049a3.215,3.215,0,0,0-1.113-2.073,3.571,3.571,0,0,0-2.305-.705,3.371,3.371,0,0,0-2.753,1.237,5.361,5.361,0,0,0-1.013,3.489v1.467a6.128,6.128,0,0,0,.481,2.5,3.8,3.8,0,0,0,1.381,1.685,3.642,3.642,0,0,0,2.067.6,5.772,5.772,0,0,0,2.327-.427,2.524,2.524,0,0,0,.939-.656v-3.205h-3.333v-.887h4.381v4.416" fill="#fcd376"/>
    </g>
  </g>
</svg>
