<svg width="72" height="96" viewBox="0 0 72 96" fill="none" xmlns="http://www.w3.org/2000/svg">
<path d="M60.7375 72.8163L47.9358 66.8132V53.0379L60.7375 59.0409V72.8163ZM47.5656 66.6401L23.6279 55.4156V41.6397L47.5656 52.8641V66.6401ZM60.7375 58.6435L47.9358 52.6411V38.8651L60.7375 44.8682V58.6435V58.6435ZM60.7375 44.4714L47.9358 38.4684V24.693L60.7375 30.6955V44.4714ZM47.5656 38.2953L23.6279 27.0702V13.2949L47.5656 24.5193V38.2953Z" fill="url(#paint0_linear_199_593)"/>
<path d="M23.4405 13.0064V82.303L10.2705 88.476V19.1794L23.4405 13.0064Z" fill="#B48A41"/>
<path d="M0.161231 93.421L0 93.0996L10.0853 88.3702V88.7675L0.161231 93.421V93.421ZM10.4555 88.5938V88.3895L23.2573 82.389V82.5914L10.4555 88.5938ZM23.6274 82.4176V82.0209L37.4688 75.5302L37.6307 75.8516L23.6274 82.4176Z" fill="white"/>
<path d="M10.4551 88.3896V88.1971L23.2568 82.1941V82.3891L10.4551 88.3896Z" fill="#C5A365"/>
<path d="M71.0311 35.522L61.1077 30.8692V30.4724L71.193 35.2013L71.0311 35.522ZM60.7375 30.4955L47.9358 24.4881V24.2963L60.7375 30.2987V30.4955ZM47.5656 24.3144L23.6279 13.0943V12.8981L47.5656 24.1225V24.3144Z" fill="white"/>
<path d="M60.7375 30.6954L47.9358 24.693V24.4881L60.7375 30.4955V30.6954ZM47.5656 24.5193L23.6279 13.2948V13.0943L47.5656 24.3144V24.5193Z" fill="url(#paint1_linear_199_593)"/>
<path d="M23.2257 13.1068L10.4555 7.11867V6.72198L23.2573 12.725V13.0924L23.2257 13.1068ZM10.0853 6.94555L0 2.21613L0.161231 1.8954L10.0853 6.54883V6.94555" fill="white"/>
<path d="M23.2552 13.1217L23.2256 13.1063L23.2552 13.0915V13.1217" fill="#C5A365"/>
<path d="M71.0311 78.0395L61.1077 73.386V72.9893L71.193 77.7187L71.0311 78.0395V78.0395ZM60.7375 73.2129L47.9358 67.2099V67.0062L51.9994 68.9138L60.7375 73.0067V73.2129V73.2129ZM47.5656 67.0367L23.6279 55.8123V55.6124L47.5656 66.8325V67.0367Z" fill="white"/>
<path d="M60.7375 73.0068L51.9994 68.9139L47.9358 67.0063V66.8132L60.7375 72.8162V73.0068V73.0068ZM47.5656 66.8325L23.6279 55.6124V55.4156L47.5656 66.6401V66.8325Z" fill="url(#paint2_linear_199_593)"/>
<path d="M10.0853 49.463L0 44.7335L0.0806155 44.5729L0.161231 44.4128L10.0853 49.0656V49.463" fill="white"/>
<path d="M23.2568 55.6386L10.4551 49.6362V49.2395L23.2568 55.2418V55.6386Z" fill="#C5A365"/>
<path d="M71.0311 63.8674L61.1077 59.214V58.8172L71.193 63.546L71.0311 63.8674ZM47.5656 52.6647L23.6279 41.444V41.2429L47.5656 52.4673V52.6647Z" fill="white"/>
<path d="M60.7375 59.0408L47.9358 53.0378V52.6411L60.7375 58.6435V59.0408ZM47.5656 52.8641L23.6279 41.6396V41.4441L47.5656 52.6648V52.8641Z" fill="url(#paint3_linear_199_593)"/>
<path d="M10.0853 35.2897L0 30.5609L0.161231 30.2396L10.0853 34.893V35.2897Z" fill="white"/>
<path d="M23.2568 41.4664L10.4551 35.4634V35.0667L23.2568 41.0691V41.4664Z" fill="#C5A365"/>
<path d="M71.0311 49.6954L61.1077 45.0419V44.6452L71.193 49.374L71.0311 49.6954V49.6954ZM47.5656 38.692L23.6279 27.4669V27.2695L47.5656 38.4896V38.692Z" fill="white"/>
<path d="M60.7375 44.8681L47.9358 38.8651V38.4684L60.7375 44.4714V44.8681ZM47.5656 38.4896L23.6279 27.2695V27.0702L47.5656 38.2953V38.4896Z" fill="url(#paint4_linear_199_593)"/>
<path d="M23.257 27.2938L13.0439 22.5046L13.2058 22.1838L23.257 26.8971V27.2938" fill="#C5A365"/>
<path d="M23.627 91.022H23.2568V82.5914L23.627 82.4176V91.022ZM23.44 82.1081V55.7244L23.627 55.8123V82.0209L23.44 82.1081" fill="white"/>
<path d="M23.2568 82.1941V55.6385L23.44 55.7245V82.1081L23.2568 82.1941" fill="#C5A365"/>
<path d="M23.2568 82.5914V82.3893L23.44 82.3035V82.1088L23.627 82.0218V82.4179L23.2568 82.5914" fill="white"/>
<path d="M23.2568 82.389V82.1944L23.44 82.1087V82.3032L23.2568 82.389Z" fill="#D2B785"/>
<path d="M23.6275 55.4156L23.4404 55.3278V41.5518L23.6275 41.6396V55.4156Z" fill="url(#paint5_linear_199_593)"/>
<path d="M23.44 55.3278L23.2568 55.2419V41.4665L23.44 41.5518V55.3278Z" fill="#C5A365"/>
<path d="M23.6275 55.8123L23.4404 55.7247V55.5252L23.6275 55.6128V55.8123Z" fill="white"/>
<path d="M23.6275 55.6123L23.4404 55.5247V55.3283L23.6275 55.4159V55.6123Z" fill="url(#paint6_linear_199_593)"/>
<path d="M23.44 55.7245L23.2568 55.6388V55.2436L23.44 55.3292V55.5253V55.7245Z" fill="#D2B785"/>
<path d="M23.6275 41.2428L23.4404 41.155V27.3796L23.6275 27.4668V41.2428Z" fill="white"/>
<path d="M23.44 41.155L23.2568 41.0691V27.2937L23.44 27.3796V41.155Z" fill="#C5A365"/>
<path d="M23.6275 27.0702L23.4404 26.983V13.2076L23.6275 13.2948V27.0702Z" fill="url(#paint7_linear_199_593)"/>
<path d="M23.44 26.983L23.2568 26.897V13.1217L23.44 13.2076V26.983Z" fill="#C5A365"/>
<path d="M23.627 12.898L23.2568 12.7249V6.57237H23.627V12.898Z" fill="white"/>
<path d="M23.627 13.0943L23.44 13.007L23.2568 13.0924V12.7273L23.627 12.8994V13.0943" fill="white"/>
<path d="M23.6275 13.2948L23.4404 13.2078V13.007L23.6275 13.0947V13.2948" fill="url(#paint8_linear_199_593)"/>
<path d="M23.44 13.2076L23.2568 13.1224V13.0934L23.44 13.0082V13.2076" fill="#D2B785"/>
<path d="M23.6275 41.4441L23.4404 41.3571V41.1557L23.6275 41.2433V41.4441Z" fill="white"/>
<path d="M23.6275 41.6396L23.4404 41.552V41.3575L23.6275 41.4445V41.6396Z" fill="url(#paint9_linear_199_593)"/>
<path d="M23.44 41.5518L23.2568 41.4668V41.0709L23.44 41.1565V41.3576V41.5518Z" fill="#D2B785"/>
<path d="M23.6275 27.4669L23.4404 27.3799V27.1823L23.6275 27.2699V27.4669Z" fill="white"/>
<path d="M23.6275 27.2694L23.4404 27.1818V26.9836L23.6275 27.0706V27.2694Z" fill="url(#paint10_linear_199_593)"/>
<path d="M23.44 27.3797L23.2568 27.294V26.8988L23.44 26.9844V27.1824V27.3797Z" fill="#D2B785"/>
<path d="M10.4551 95.5416H10.085V88.7676L10.4551 88.5938V95.5416ZM10.085 88.3703V49.4631L10.27 49.5496V88.2837L10.085 88.3703ZM10.27 49.1529L10.085 49.0657V35.2897L10.27 35.3769V49.1529ZM10.27 34.9796L10.085 34.893V6.94554L10.4551 7.11867V19.0929L10.27 19.1795V34.9796ZM10.4551 6.72197L10.085 6.54882V0.396333H10.27H10.4551V6.72197" fill="white"/>
<path d="M10.2705 88.2836V49.5495L10.4556 49.6361V88.197L10.2705 88.2836V88.2836ZM10.4556 49.2394L10.2705 49.1528V35.3768L10.4556 35.4634V49.2394ZM10.4556 35.0667L10.2705 34.9795V19.1794L10.4556 19.0929V35.0667Z" fill="#C5A365"/>
<path d="M10.0859 88.7675V88.3716L10.271 88.2854V88.4771L10.4561 88.3908V88.5944L10.0859 88.7675" fill="white"/>
<path d="M10.2705 88.476V88.2842L10.4556 88.1979V88.3897L10.2705 88.476Z" fill="#D2B785"/>
<path d="M10.4561 7.11862L10.0859 6.94575V6.54959L10.4561 6.7225V7.11862Z" fill="white"/>
<path d="M10.271 49.5496L10.0859 49.4634V49.0675L10.271 49.1543V49.5496" fill="white"/>
<path d="M10.4556 49.6361L10.2705 49.5498V49.1545L10.4556 49.2408V49.6361Z" fill="#D2B785"/>
<path d="M10.271 35.3769L10.0859 35.2901V34.8948L10.271 34.981V35.3769" fill="white"/>
<path d="M10.4556 35.4634L10.2705 35.3772V34.9813L10.4556 35.0682V35.4634" fill="#D2B785"/>
<path d="M61.1075 91.022H60.7373V73.2129L61.1075 73.386V91.022ZM61.1075 72.9893L60.9224 72.9027V59.1274L61.1075 59.2139V72.9893ZM61.1075 58.8172L60.9224 58.7306V44.9547L61.1075 45.0418V58.8172V58.8172ZM61.1075 44.6451L60.9224 44.5579V30.7826L61.1075 30.8691V44.6451V44.6451ZM61.1075 30.4724L60.7373 30.2987V7.38704H60.9218H61.1075V30.4724" fill="white"/>
<path d="M60.9224 72.9027L60.7373 72.8162V59.0408L60.9224 59.1273V72.9027ZM60.9224 58.7306L60.7373 58.6434V44.8681L60.9224 44.9546V58.7306V58.7306ZM60.9224 44.5579L60.7373 44.4714V30.6954L60.9224 30.7826V44.5579" fill="url(#paint11_linear_199_593)"/>
<path d="M61.1075 30.8691L60.9224 30.7827V30.5831L60.7373 30.496V30.2995L61.1075 30.473V30.8691Z" fill="white"/>
<path d="M60.9224 30.7825L60.7373 30.6955V30.496L60.9224 30.583V30.7825Z" fill="url(#paint12_linear_199_593)"/>
<path d="M61.1075 73.386L60.7373 73.2135V73.0081L60.9224 73.0943V72.9045L61.1075 72.9907V73.386Z" fill="white"/>
<path d="M60.9224 73.0933L60.7373 73.007V72.817L60.9224 72.9033V73.0933Z" fill="url(#paint13_linear_199_593)"/>
<path d="M61.107 59.2139L60.9219 59.1277V58.7324L61.107 58.8187V59.2139Z" fill="white"/>
<path d="M60.9224 59.1274L60.7373 59.0411V58.6452L60.9224 58.7321V59.1274" fill="url(#paint14_linear_199_593)"/>
<path d="M61.107 45.0419L60.9219 44.955V44.5597L61.107 44.6466V45.0419Z" fill="white"/>
<path d="M60.9224 44.9547L60.7373 44.8684V44.4731L60.9224 44.5594V44.9547Z" fill="url(#paint15_linear_199_593)"/>
<path d="M47.9346 75.5302H47.5645V67.0367L47.9346 67.2099V75.5302ZM47.7515 52.5551L47.5645 52.4673V38.6919L47.7515 38.7798V52.5551ZM47.9346 24.2963L47.5645 24.1225V17.9706H47.7496H47.9346V24.2963Z" fill="white"/>
<path d="M47.9346 66.8131L47.5645 66.64V52.864L47.9346 53.0378V66.8131ZM47.9346 52.6411L47.7515 52.5551V38.7797L47.9346 38.865V52.6411ZM47.9346 38.4684L47.5645 38.2952V24.5192L47.9346 24.693V38.4684Z" fill="url(#paint16_linear_199_593)"/>
<path d="M47.9346 24.4881L47.7515 24.4027L47.5645 24.3155V24.1249L47.9346 24.2975V24.4881" fill="white"/>
<path d="M47.9346 24.6929L47.5645 24.5203V24.3167L47.7515 24.404L47.9346 24.4894V24.6929" fill="url(#paint17_linear_199_593)"/>
<path d="M47.9346 67.2099L47.5645 67.0379V66.835L47.7515 66.9222L47.9346 67.0076V67.2099" fill="white"/>
<path d="M47.9346 67.0063L47.7515 66.9209L47.5645 66.8337V66.6425L47.9346 66.8145V67.0063" fill="url(#paint18_linear_199_593)"/>
<path d="M47.7515 52.7525L47.5645 52.6649V52.4679L47.7515 52.5555V52.7525Z" fill="white"/>
<path d="M47.9346 53.0378L47.5645 52.8647V52.6661L47.7515 52.7536V52.5569L47.9346 52.6425V53.0378" fill="url(#paint19_linear_199_593)"/>
<path d="M47.7515 38.7798L47.5645 38.6922V38.4902L47.7515 38.5778V38.7798Z" fill="white"/>
<path d="M47.9346 38.865L47.7515 38.7798V38.5777L47.5645 38.49V38.2959L47.9346 38.4688V38.865" fill="url(#paint20_linear_199_593)"/>
<defs>
<linearGradient id="paint0_linear_199_593" x1="23.4409" y1="43.0503" x2="60.9226" y2="43.0503" gradientUnits="userSpaceOnUse">
<stop stop-color="#FCD376"/>
<stop offset="0.0001061" stop-color="#FCD376"/>
<stop offset="1" stop-color="#FCD376"/>
</linearGradient>
<linearGradient id="paint1_linear_199_593" x1="23.4409" y1="43.0502" x2="60.9226" y2="43.0502" gradientUnits="userSpaceOnUse">
<stop stop-color="#FDDD96"/>
<stop offset="0.0001061" stop-color="#FDDD96"/>
<stop offset="1" stop-color="#FDDD96"/>
</linearGradient>
<linearGradient id="paint2_linear_199_593" x1="23.4409" y1="43.0502" x2="60.9226" y2="43.0502" gradientUnits="userSpaceOnUse">
<stop stop-color="#FDDD96"/>
<stop offset="0.0001061" stop-color="#FDDD96"/>
<stop offset="1" stop-color="#FDDD96"/>
</linearGradient>
<linearGradient id="paint3_linear_199_593" x1="23.4409" y1="43.0502" x2="60.9226" y2="43.0502" gradientUnits="userSpaceOnUse">
<stop stop-color="#FDDD96"/>
<stop offset="0.0001061" stop-color="#FDDD96"/>
<stop offset="1" stop-color="#FDDD96"/>
</linearGradient>
<linearGradient id="paint4_linear_199_593" x1="23.4409" y1="43.0502" x2="60.9226" y2="43.0502" gradientUnits="userSpaceOnUse">
<stop stop-color="#FDDD96"/>
<stop offset="0.0001061" stop-color="#FDDD96"/>
<stop offset="1" stop-color="#FDDD96"/>
</linearGradient>
<linearGradient id="paint5_linear_199_593" x1="23.4404" y1="43.0502" x2="60.924" y2="43.0502" gradientUnits="userSpaceOnUse">
<stop stop-color="#FDDD96"/>
<stop offset="0.0001061" stop-color="#FDDD96"/>
<stop offset="1" stop-color="#FDDD96"/>
</linearGradient>
<linearGradient id="paint6_linear_199_593" x1="23.4404" y1="43.0774" x2="60.924" y2="43.0774" gradientUnits="userSpaceOnUse">
<stop stop-color="#FDE5B0"/>
<stop offset="0.0001061" stop-color="#FDE5B0"/>
<stop offset="1" stop-color="#FDE5B0"/>
</linearGradient>
<linearGradient id="paint7_linear_199_593" x1="23.4404" y1="43.0502" x2="60.924" y2="43.0502" gradientUnits="userSpaceOnUse">
<stop stop-color="#FDDD96"/>
<stop offset="0.0001061" stop-color="#FDDD96"/>
<stop offset="1" stop-color="#FDDD96"/>
</linearGradient>
<linearGradient id="paint8_linear_199_593" x1="23.4404" y1="42.9891" x2="60.924" y2="42.9891" gradientUnits="userSpaceOnUse">
<stop stop-color="#FDE5B0"/>
<stop offset="0.0001061" stop-color="#FDE5B0"/>
<stop offset="1" stop-color="#FDE5B0"/>
</linearGradient>
<linearGradient id="paint9_linear_199_593" x1="23.4404" y1="43.0472" x2="60.924" y2="43.0472" gradientUnits="userSpaceOnUse">
<stop stop-color="#FDE5B0"/>
<stop offset="0.0001061" stop-color="#FDE5B0"/>
<stop offset="1" stop-color="#FDE5B0"/>
</linearGradient>
<linearGradient id="paint10_linear_199_593" x1="23.4404" y1="43.0168" x2="60.924" y2="43.0168" gradientUnits="userSpaceOnUse">
<stop stop-color="#FDE5B0"/>
<stop offset="0.0001061" stop-color="#FDE5B0"/>
<stop offset="1" stop-color="#FDE5B0"/>
</linearGradient>
<linearGradient id="paint11_linear_199_593" x1="23.4392" y1="43.0502" x2="60.9224" y2="43.0502" gradientUnits="userSpaceOnUse">
<stop stop-color="#FDDD96"/>
<stop offset="0.0001061" stop-color="#FDDD96"/>
<stop offset="1" stop-color="#FDDD96"/>
</linearGradient>
<linearGradient id="paint12_linear_199_593" x1="23.4392" y1="43.0236" x2="60.9224" y2="43.0236" gradientUnits="userSpaceOnUse">
<stop stop-color="#FDE5B0"/>
<stop offset="0.0001061" stop-color="#FDE5B0"/>
<stop offset="1" stop-color="#FDE5B0"/>
</linearGradient>
<linearGradient id="paint13_linear_199_593" x1="23.4392" y1="43.1468" x2="60.9224" y2="43.1468" gradientUnits="userSpaceOnUse">
<stop stop-color="#FDE5B0"/>
<stop offset="0.0001061" stop-color="#FDE5B0"/>
<stop offset="1" stop-color="#FDE5B0"/>
</linearGradient>
<linearGradient id="paint14_linear_199_593" x1="23.4392" y1="43.1089" x2="60.9224" y2="43.1089" gradientUnits="userSpaceOnUse">
<stop stop-color="#FDE5B0"/>
<stop offset="0.0001061" stop-color="#FDE5B0"/>
<stop offset="1" stop-color="#FDE5B0"/>
</linearGradient>
<linearGradient id="paint15_linear_199_593" x1="23.4392" y1="43.0571" x2="60.9224" y2="43.0571" gradientUnits="userSpaceOnUse">
<stop stop-color="#FDE5B0"/>
<stop offset="0.0001061" stop-color="#FDE5B0"/>
<stop offset="1" stop-color="#FDE5B0"/>
</linearGradient>
<linearGradient id="paint16_linear_199_593" x1="23.4398" y1="43.0502" x2="60.9215" y2="43.0502" gradientUnits="userSpaceOnUse">
<stop stop-color="#FDDD96"/>
<stop offset="0.0001061" stop-color="#FDDD96"/>
<stop offset="1" stop-color="#FDDD96"/>
</linearGradient>
<linearGradient id="paint17_linear_199_593" x1="23.4398" y1="42.9306" x2="60.9215" y2="42.9306" gradientUnits="userSpaceOnUse">
<stop stop-color="#FDE5B0"/>
<stop offset="0.0001061" stop-color="#FDE5B0"/>
<stop offset="1" stop-color="#FDE5B0"/>
</linearGradient>
<linearGradient id="paint18_linear_199_593" x1="23.4398" y1="43.2032" x2="60.9215" y2="43.2032" gradientUnits="userSpaceOnUse">
<stop stop-color="#FDE5B0"/>
<stop offset="0.0001061" stop-color="#FDE5B0"/>
<stop offset="1" stop-color="#FDE5B0"/>
</linearGradient>
<linearGradient id="paint19_linear_199_593" x1="23.4398" y1="43.0867" x2="60.9215" y2="43.0867" gradientUnits="userSpaceOnUse">
<stop stop-color="#FDE5B0"/>
<stop offset="0.0001061" stop-color="#FDE5B0"/>
<stop offset="1" stop-color="#FDE5B0"/>
</linearGradient>
<linearGradient id="paint20_linear_199_593" x1="23.4398" y1="43.0441" x2="60.9215" y2="43.0441" gradientUnits="userSpaceOnUse">
<stop stop-color="#FDE5B0"/>
<stop offset="0.0001061" stop-color="#FDE5B0"/>
<stop offset="1" stop-color="#FDE5B0"/>
</linearGradient>
</defs>
</svg>
