<svg width="24" height="24" viewBox="0 0 24 24" fill="none" xmlns="http://www.w3.org/2000/svg">
<path d="M4.89161 19.4424H19.0684C20.7646 19.4424 21.749 18.458 21.749 16.5771V6.86523C21.749 4.98437 20.7559 4 18.8574 4H4.68067C2.98438 4 2 4.97559 2 6.86523V16.5771C2 18.458 2.99317 19.4424 4.89161 19.4424ZM10.8857 12.0244L4.48731 5.69629C4.61036 5.66992 4.75098 5.65234 4.90039 5.65234H18.8486C19.0068 5.65234 19.1475 5.66992 19.2793 5.70508L12.8896 12.0244C12.5205 12.3848 12.2129 12.543 11.8877 12.543C11.5625 12.543 11.2549 12.376 10.8857 12.0244ZM3.64356 6.98828L8.42481 11.6904L3.64356 16.4189V6.98828ZM15.3506 11.6904L20.1055 7.01465V16.4014L15.3506 11.6904ZM4.90039 17.7812C4.74219 17.7812 4.59278 17.7637 4.46094 17.7373L9.49707 12.7451L9.97171 13.2197C10.6133 13.8437 11.2285 14.1074 11.8877 14.1074C12.5381 14.1074 13.1621 13.8437 13.7949 13.2197L14.2783 12.7451L19.3057 17.7285C19.165 17.7637 19.0156 17.7812 18.8486 17.7812H4.90039Z" fill="white"/>
</svg>
