<svg width="24" height="24" viewBox="0 0 24 24" fill="none" xmlns="http://www.w3.org/2000/svg">
<path d="M16.3809 21C17.962 21 19.0372 20.5472 20.0129 19.4879C20.0762 19.4155 20.1394 19.334 20.2027 19.2616C20.7357 18.664 20.9977 18.0393 20.9977 17.4598C20.9977 16.7807 20.6363 16.165 19.8322 15.6127L17.1398 13.7295C16.2905 13.141 15.3057 13.0956 14.5467 13.8562L13.8781 14.5262C13.6432 14.7616 13.4174 14.7797 13.1463 14.5896C12.6584 14.2636 11.7368 13.4488 11.1044 12.815C10.463 12.1721 9.81241 11.4478 9.46004 10.8955C9.2703 10.6148 9.28837 10.3975 9.52329 10.1621L10.1919 9.49209C10.9508 8.73154 10.9056 7.74463 10.3093 6.89354L8.3939 4.15012C7.86084 3.37146 7.21936 3.00928 6.54173 3.00023C5.96349 2.99118 5.34911 3.25375 4.7528 3.77889C4.68052 3.84227 4.60824 3.90565 4.53595 3.96903C3.46079 4.95594 3 6.01528 3 7.66314C3 10.3342 4.54499 13.485 7.55365 16.4819C10.5443 19.4607 13.6523 21 16.3809 21ZM16.3809 19.4879C14.0769 19.5242 11.2129 17.8853 8.7011 15.3864C6.17129 12.8874 4.49078 9.90859 4.52693 7.59977C4.54499 6.63097 4.88832 5.77987 5.56595 5.18229C5.63823 5.12796 5.69243 5.0827 5.76472 5.02838C6.0177 4.81107 6.28875 4.69337 6.54173 4.69337C6.80375 4.69337 7.03865 4.80202 7.21936 5.07364L8.9089 7.61788C9.12575 7.92572 9.13478 8.27883 8.81855 8.58668L8.09575 9.30195C7.4091 9.97196 7.47234 10.7597 7.90601 11.3754C8.3939 12.0544 9.30645 13.0956 10.0744 13.8562C10.8966 14.6711 12.017 15.6761 12.6675 16.1469C13.2818 16.5815 14.0679 16.6449 14.7365 15.9568L15.4502 15.2324C15.7485 14.9155 16.1007 14.9246 16.4171 15.1329L18.9106 16.7989C19.1908 16.9799 19.2902 17.2063 19.2902 17.4688C19.2902 17.7223 19.1727 17.994 18.9559 18.2566C18.9016 18.3199 18.8565 18.3743 18.8023 18.4467C18.206 19.1348 17.3566 19.4789 16.3809 19.4879Z" fill="white"/>
</svg>
