<svg width="755" height="204" viewBox="0 0 755 204" fill="none" xmlns="http://www.w3.org/2000/svg">
<path d="M125.569 155.047L99.1021 142.195V112.703L125.569 125.555V155.047ZM98.3391 141.824L48.8501 117.793V88.3L98.3391 112.331V141.824M125.571 124.704L99.1041 111.853V82.36L125.569 95.216V124.708M125.569 94.367L99.1021 81.515V52.016L125.569 64.867V94.36M98.3391 81.14L48.8501 57.108V27.616L98.3391 51.647V81.14Z" fill="url(#paint0_linear_9_550)"/>
<path d="M48.461 26.999V175.357L21.233 188.573V40.2161L48.461 27.0001" fill="#B48A41"/>
<path d="M0.333008 199.16L0 198.472L20.851 188.347V189.198L0.334015 199.161M21.617 188.826V188.389L48.084 175.542V175.975L21.617 188.826ZM48.849 175.603V174.754L77.465 160.854L77.8 161.542L48.849 175.599" fill="white"/>
<path d="M21.616 188.388V187.976L48.083 175.124V175.541L21.616 188.388Z" fill="#C5A365"/>
<path d="M146.85 75.2031L126.339 65.2421V64.3931L147.185 74.5161L146.85 75.2031ZM125.569 64.4421L99.1021 51.5811V51.1701L125.569 64.0161V64.4371M98.3391 51.2081L48.8501 27.1871V26.7671L98.3391 50.7981V51.2091" fill="white"/>
<path d="M125.569 64.87L99.102 52.016V51.577L125.569 64.438V64.866M98.339 51.647L48.848 27.616V27.187L98.339 51.208V51.647Z" fill="url(#paint1_linear_9_550)"/>
<path d="M48.017 27.2159L21.617 14.3959V13.5469L48.084 26.3989V27.1859L48.019 27.2169M20.852 14.0259L0.000976562 3.90088L0.333984 3.21387L20.851 13.1769V14.0259" fill="white"/>
<path d="M48.0821 27.2461L48.0171 27.2141L48.0821 27.1831V27.2461Z" fill="#C5A365"/>
<path d="M146.85 166.229L126.339 156.267V155.418L147.19 165.543L146.855 166.23M125.569 155.896L99.1021 143.044V142.608L107.502 146.692L125.567 155.455V155.896M98.3391 142.673L48.8501 118.642V118.214L98.3391 142.236V142.673Z" fill="white"/>
<path d="M125.569 155.455L107.504 146.692L99.104 142.608V142.195L125.571 155.047V155.455M98.339 142.236L48.848 118.216V117.795L98.339 141.824V142.236Z" fill="url(#paint2_linear_9_550)"/>
<path d="M20.85 105.05L-0.000976562 94.925L0.166046 94.5811L0.333038 94.238L20.85 104.199V105.05" fill="white"/>
<path d="M48.082 118.271L21.616 105.416V104.567L48.083 117.418V118.267" fill="#C5A365"/>
<path d="M146.85 135.888L126.339 125.925V125.076L147.19 135.2L146.855 135.888M98.3391 111.904L48.8501 87.8809V87.45L98.3391 111.482V111.905" fill="white"/>
<path d="M125.569 125.555L99.1021 112.703V111.854L125.569 124.705V125.556M98.3391 112.331L48.8501 88.2999V87.8809L98.3391 111.904V112.331Z" fill="url(#paint3_linear_9_550)"/>
<path d="M20.85 74.7061L-0.000976562 64.582L0.332031 63.894L20.849 73.8571V74.7061" fill="white"/>
<path d="M48.082 87.93L21.615 75.078V74.229L48.082 87.08V87.931" fill="#C5A365"/>
<path d="M146.85 105.547L126.334 95.5839V94.7349L147.185 104.859L146.85 105.547ZM98.3391 81.9899L48.8501 57.9579V57.5349L98.3391 81.5559V81.989" fill="white"/>
<path d="M125.569 95.2159L99.1021 82.364V81.515L125.569 94.3669V95.2159ZM98.3391 81.5559L48.8501 57.5349V57.1079L98.3391 81.14V81.5559" fill="url(#paint4_linear_9_550)"/>
<path d="M48.082 57.587L26.967 47.334L27.302 46.647L48.082 56.738V57.587Z" fill="#C5A365"/>
<path d="M48.848 194.024H48.083V175.975L48.848 175.603V194.024M48.461 174.94V118.455L48.848 118.643V174.754L48.461 174.941" fill="white"/>
<path d="M48.082 175.124V118.271L48.461 118.455V174.94L48.082 175.124Z" fill="#C5A365"/>
<path d="M48.082 175.975V175.542L48.461 175.358V174.941L48.8481 174.754V175.603L48.083 175.975" fill="white"/>
<path d="M48.082 175.541V175.124L48.461 174.94V175.357L48.082 175.541Z" fill="#D2B785"/>
<path d="M48.8481 117.794L48.4611 117.606V88.116L48.8481 88.304V117.797" fill="url(#paint5_linear_9_550)"/>
<path d="M48.461 117.606L48.082 117.422V87.9299L48.461 88.1129V117.606" fill="#C5A365"/>
<path d="M48.8481 118.643L48.4611 118.455V118.027L48.8481 118.215V118.643Z" fill="white"/>
<path d="M48.8481 118.216L48.4611 118.028V117.607L48.8481 117.795V118.216Z" fill="url(#paint6_linear_9_550)"/>
<path d="M48.461 118.455L48.082 118.271V117.422L48.461 117.606V118.455Z" fill="#D2B785"/>
<path d="M48.8481 87.451L48.4611 87.263V57.771L48.8481 57.958V87.451" fill="white"/>
<path d="M48.461 87.2629L48.082 87.0789V57.5869L48.461 57.7709V87.2629Z" fill="#C5A365"/>
<path d="M48.8481 57.1079L48.4611 56.921V27.429L48.8481 27.6159V57.1079Z" fill="url(#paint7_linear_9_550)"/>
<path d="M48.461 56.9221L48.082 56.7381V27.2461L48.461 27.4301V56.9221Z" fill="#C5A365"/>
<path d="M48.848 26.7671L48.083 26.3961V13.2241H48.848V26.7671Z" fill="white"/>
<path d="M48.8481 27.187L48.461 26.999L48.082 27.183V26.396L48.847 26.767V27.187" fill="white"/>
<path d="M48.8481 27.616L48.4611 27.4291V26.998L48.8481 27.186V27.6151" fill="url(#paint8_linear_9_550)"/>
<path d="M48.461 27.4301L48.082 27.246V27.183L48.461 26.999V27.4301" fill="#D2B785"/>
<path d="M48.8481 87.882L48.4611 87.6949V87.2629L48.8481 87.4509V87.882Z" fill="white"/>
<path d="M48.8481 88.3L48.4611 88.1121V87.6951L48.8481 87.8821V88.301" fill="url(#paint9_linear_9_550)"/>
<path d="M48.461 88.116L48.082 87.933V87.082L48.461 87.2661V88.1151" fill="#D2B785"/>
<path d="M48.8481 57.9579L48.4611 57.7709V57.3469L48.8481 57.5349V57.9579Z" fill="white"/>
<path d="M48.8481 57.5349L48.4611 57.3469V56.9219L48.8481 57.1089V57.5359" fill="url(#paint10_linear_9_550)"/>
<path d="M48.461 57.7711L48.082 57.587V56.738L48.461 56.9221V57.7711Z" fill="#D2B785"/>
<path d="M21.6161 203.7H20.8511V189.2L21.6161 188.828V203.703M20.8511 188.35V105.05L21.2341 105.235V188.162L20.8511 188.347M21.2341 104.386L20.8511 104.199V74.706L21.2341 74.893V104.386M21.2341 74.042L20.8511 73.857V14.024L21.6161 14.395V40.031L21.2331 40.216V74.043M21.6161 13.543L20.8511 13.172V0H21.6161V13.543Z" fill="white"/>
<path d="M21.233 188.161V105.235L21.616 105.42V187.976L21.233 188.161M21.616 104.57L21.233 104.385V74.892L21.616 75.077V104.57ZM21.616 74.227L21.233 74.04V40.216L21.616 40.031V74.231" fill="#C5A365"/>
<path d="M20.8501 189.197V188.346L21.2331 188.161V188.573L21.6161 188.388V188.825L20.8511 189.197" fill="white"/>
<path d="M21.233 188.573V188.161L21.616 187.976V188.388L21.233 188.573Z" fill="#D2B785"/>
<path d="M21.6161 14.394L20.8511 14.0231V13.1741L21.6161 13.545V14.394Z" fill="white"/>
<path d="M21.2331 105.235L20.8501 105.05V104.199L21.2331 104.386V105.235" fill="white"/>
<path d="M21.616 105.416L21.233 105.231V104.382L21.616 104.567V105.416Z" fill="#D2B785"/>
<path d="M21.2331 74.8919L20.8501 74.705V73.856L21.2331 74.041V74.8919" fill="white"/>
<path d="M21.616 75.078L21.233 74.893V74.042L21.616 74.229V75.078" fill="#D2B785"/>
<path d="M126.334 194.024H125.569V155.896L126.334 156.267V194.024M126.334 155.417L125.951 155.232V125.74L126.334 125.925V155.416M126.334 125.075L125.951 124.89V95.397L126.334 95.584V125.076M126.334 94.735L125.951 94.548V65.056L126.334 65.241V94.7341M126.334 64.3911L125.569 64.019V14.967H126.334V64.3911Z" fill="white"/>
<path d="M125.951 155.232L125.568 155.047V125.555L125.951 125.74V155.232ZM125.951 124.891L125.568 124.704V95.2161L125.951 95.4011V124.894M125.951 94.551L125.568 94.366V64.873L125.951 65.0601V94.5521" fill="url(#paint11_linear_9_550)"/>
<path d="M126.334 65.242L125.951 65.057V64.629L125.568 64.442V64.021L126.333 64.393V65.242" fill="white"/>
<path d="M125.951 65.0559L125.568 64.869V64.4409L125.951 64.6279V65.0559Z" fill="url(#paint12_linear_9_550)"/>
<path d="M126.334 156.267L125.569 155.896V155.455L125.952 155.64V155.232L126.335 155.417V156.266" fill="white"/>
<path d="M125.951 155.64L125.568 155.455V155.047L125.951 155.232V155.64Z" fill="url(#paint13_linear_9_550)"/>
<path d="M126.334 125.926L125.951 125.741V124.892L126.334 125.077V125.926Z" fill="white"/>
<path d="M125.951 125.74L125.568 125.555V124.704L125.951 124.891V125.74" fill="url(#paint14_linear_9_550)"/>
<path d="M126.334 95.5839L125.951 95.3969V94.5479L126.334 94.7349V95.5839Z" fill="white"/>
<path d="M125.951 95.398L125.568 95.213V94.364L125.951 94.549V95.398Z" fill="url(#paint15_linear_9_550)"/>
<path d="M99.102 160.857H98.339V142.673L99.104 143.044V160.857M98.725 111.669L98.338 111.481V81.989L98.725 82.177V111.669ZM99.104 51.169L98.339 50.797V37.626H99.104V51.169Z" fill="white"/>
<path d="M99.1021 142.195L98.337 141.824V112.331L99.1021 112.703V142.195M99.1021 111.854L98.7231 111.67V82.178L99.1021 82.361V111.854M99.1021 81.511L98.337 81.14V51.647L99.1021 52.019V81.516" fill="url(#paint16_linear_9_550)"/>
<path d="M99.1021 51.5799L98.7231 51.3959L98.3361 51.2079V50.7969L99.1011 51.1689V51.5799" fill="white"/>
<path d="M99.1021 52.0161L98.337 51.644V51.2051L98.724 51.3931L99.103 51.577V52.0161" fill="url(#paint17_linear_9_550)"/>
<path d="M99.1021 143.044L98.337 142.673V142.236L98.724 142.424L99.103 142.608V143.044" fill="white"/>
<path d="M99.1021 142.608L98.7231 142.424L98.3361 142.236V141.824L99.1011 142.195V142.608" fill="url(#paint18_linear_9_550)"/>
<path d="M98.7231 112.092L98.3361 111.904V111.481L98.7231 111.669V112.092Z" fill="white"/>
<path d="M99.1021 112.703L98.337 112.331V111.904L98.724 112.092V111.669L99.103 111.853V112.702" fill="url(#paint19_linear_9_550)"/>
<path d="M98.7231 82.1781L98.3361 81.9901V81.5571L98.7231 81.7451V82.1781Z" fill="white"/>
<path d="M99.1021 82.3601L98.7231 82.1771V81.7441L98.3361 81.5561V81.1401L99.1011 81.5111V82.3601" fill="url(#paint20_linear_9_550)"/>
<path d="M230.612 76.0821H199.152V116.763H230.52C235.888 116.719 241.02 114.549 244.79 110.727C248.561 106.905 250.661 101.744 250.632 96.376C250.647 91.0364 248.551 85.9071 244.802 82.1057C241.052 78.3043 235.951 76.1388 230.612 76.0811V76.0821ZM230.612 120.455H199.152V132.172H195.277V72.3821H230.52C236.891 72.3815 243.002 74.906 247.516 79.4026C252.029 83.8992 254.576 90.0012 254.599 96.3721C254.6 102.742 252.076 108.853 247.58 113.367C243.084 117.88 236.982 120.427 230.612 120.451" fill="white"/>
<path d="M300.724 76.0821H269.082V116.763H300.633C305.953 116.722 311.039 114.572 314.775 110.785C318.511 106.998 320.592 101.883 320.56 96.563C320.56 85.495 311.611 76.0861 300.725 76.0861L300.724 76.0821ZM308.104 119.258L319.544 129.958L317.052 132.818L303.768 120.274C302.753 120.365 301.739 120.457 300.724 120.457H269.082V132.174H265.207V72.3821H300.632C306.992 72.4628 313.064 75.0437 317.535 79.5667C322.006 84.0897 324.517 90.1911 324.525 96.5511C324.535 101.584 322.952 106.491 320.002 110.568C317.052 114.646 312.887 117.686 308.104 119.251" fill="white"/>
<path d="M365.484 129.86C372.76 129.814 379.721 126.884 384.84 121.713C389.959 116.542 392.819 109.552 392.792 102.276C392.819 94.9999 389.959 88.0101 384.84 82.8393C379.721 77.6685 372.76 74.7386 365.484 74.692C358.208 74.7386 351.248 77.6685 346.129 82.8394C341.01 88.0102 338.15 95 338.177 102.276C338.15 109.552 341.009 116.542 346.128 121.713C351.247 126.884 358.208 129.814 365.484 129.86V129.86ZM365.484 71C373.777 71.0066 381.728 74.3039 387.592 80.1679C393.456 86.0319 396.753 93.9832 396.759 102.276C396.753 110.569 393.456 118.52 387.592 124.384C381.728 130.248 373.777 133.545 365.484 133.552C357.192 133.545 349.241 130.247 343.378 124.383C337.514 118.519 334.217 110.568 334.211 102.276C334.217 93.9836 337.514 86.0326 343.378 80.1686C349.241 74.3047 357.192 71.0072 365.484 71" fill="white"/>
<path d="M462.904 132.168L411.241 78.5681V132.168H407.368V72.3821H410.688L462.351 125.982V72.3821H466.224V132.165H462.904" fill="white"/>
<path d="M524.714 116.758L506.078 77.735H505.709L487.073 116.758H524.714ZM507.093 71.458L535.968 131.15L532.555 132.809L526.555 120.448H485.228L479.228 132.809L475.815 131.15L504.692 71.458H507.092" fill="white"/>
<path d="M549.439 132.168H545.566V72.3821H549.439V132.165" fill="white"/>
<path d="M618.539 132.812L584.034 104.031L565.307 118.422V132.169H561.429V72.382H565.304V113.803L618.718 71.554L620.933 74.689L586.892 101.629L620.933 130.041L618.533 132.809" fill="white"/>
<path d="M653.867 129.86C661.143 129.814 668.104 126.884 673.223 121.713C678.342 116.542 681.202 109.552 681.175 102.276C681.202 94.9999 678.342 88.0101 673.223 82.8393C668.104 77.6685 661.143 74.7386 653.867 74.692C646.591 74.7386 639.631 77.6685 634.512 82.8394C629.393 88.0102 626.533 95 626.56 102.276C626.533 109.552 629.392 116.542 634.511 121.713C639.63 126.884 646.591 129.814 653.867 129.86V129.86ZM653.867 71C662.159 71.0074 670.11 74.305 675.973 80.1689C681.836 86.0328 685.133 93.9837 685.139 102.276C685.133 110.569 681.836 118.52 675.972 124.384C670.108 130.248 662.157 133.545 653.864 133.552C645.572 133.545 637.621 130.247 631.758 124.383C625.894 118.519 622.597 110.568 622.591 102.276C622.597 93.9836 625.894 86.0326 631.758 80.1686C637.621 74.3047 645.572 71.0072 653.864 71" fill="white"/>
<path d="M751.287 132.168L699.624 78.5681V132.168H695.749V72.3821H699.072L750.735 125.982V72.3821H754.61V132.165H751.289" fill="white"/>
<defs>
<linearGradient id="paint0_linear_9_550" x1="-289.336" y1="768.5" x2="-289.259" y2="768.5" gradientUnits="userSpaceOnUse">
<stop stop-color="#FCD376"/>
<stop offset="1" stop-color="#FCD376"/>
</linearGradient>
<linearGradient id="paint1_linear_9_550" x1="-289.338" y1="768.524" x2="-289.261" y2="768.524" gradientUnits="userSpaceOnUse">
<stop stop-color="#FDDD96"/>
<stop offset="1" stop-color="#FDDD96"/>
</linearGradient>
<linearGradient id="paint2_linear_9_550" x1="-289.347" y1="768.485" x2="-289.27" y2="768.485" gradientUnits="userSpaceOnUse">
<stop stop-color="#FDDD96"/>
<stop offset="1" stop-color="#FDDD96"/>
</linearGradient>
<linearGradient id="paint3_linear_9_550" x1="-289.327" y1="768.555" x2="-289.251" y2="768.555" gradientUnits="userSpaceOnUse">
<stop stop-color="#FDDD96"/>
<stop offset="1" stop-color="#FDDD96"/>
</linearGradient>
<linearGradient id="paint4_linear_9_550" x1="-289.327" y1="768.585" x2="-289.251" y2="768.585" gradientUnits="userSpaceOnUse">
<stop stop-color="#FDDD96"/>
<stop offset="1" stop-color="#FDDD96"/>
</linearGradient>
<linearGradient id="paint5_linear_9_550" x1="-289.685" y1="768.524" x2="-289.552" y2="768.524" gradientUnits="userSpaceOnUse">
<stop stop-color="#FDDD96"/>
<stop offset="1" stop-color="#FDDD96"/>
</linearGradient>
<linearGradient id="paint6_linear_9_550" x1="-289.685" y1="768.128" x2="-289.552" y2="768.128" gradientUnits="userSpaceOnUse">
<stop stop-color="#FDE5B0"/>
<stop offset="1" stop-color="#FDE5B0"/>
</linearGradient>
<linearGradient id="paint7_linear_9_550" x1="-289.685" y1="768.512" x2="-289.552" y2="768.512" gradientUnits="userSpaceOnUse">
<stop stop-color="#FDDD96"/>
<stop offset="1" stop-color="#FDDD96"/>
</linearGradient>
<linearGradient id="paint8_linear_9_550" x1="-289.685" y1="769.235" x2="-289.552" y2="769.235" gradientUnits="userSpaceOnUse">
<stop stop-color="#FDE5B0"/>
<stop offset="1" stop-color="#FDE5B0"/>
</linearGradient>
<linearGradient id="paint9_linear_9_550" x1="-289.685" y1="769.213" x2="-289.552" y2="769.213" gradientUnits="userSpaceOnUse">
<stop stop-color="#FDE5B0"/>
<stop offset="1" stop-color="#FDE5B0"/>
</linearGradient>
<linearGradient id="paint10_linear_9_550" x1="-289.685" y1="769.292" x2="-289.552" y2="769.292" gradientUnits="userSpaceOnUse">
<stop stop-color="#FDE5B0"/>
<stop offset="1" stop-color="#FDE5B0"/>
</linearGradient>
<linearGradient id="paint11_linear_9_550" x1="-289.735" y1="768.499" x2="-289.602" y2="768.499" gradientUnits="userSpaceOnUse">
<stop stop-color="#FDDD96"/>
<stop offset="1" stop-color="#FDDD96"/>
</linearGradient>
<linearGradient id="paint12_linear_9_550" x1="-289.735" y1="768.909" x2="-289.602" y2="768.909" gradientUnits="userSpaceOnUse">
<stop stop-color="#FDE5B0"/>
<stop offset="1" stop-color="#FDE5B0"/>
</linearGradient>
<linearGradient id="paint13_linear_9_550" x1="-289.735" y1="768.164" x2="-289.602" y2="768.164" gradientUnits="userSpaceOnUse">
<stop stop-color="#FDE5B0"/>
<stop offset="1" stop-color="#FDE5B0"/>
</linearGradient>
<linearGradient id="paint14_linear_9_550" x1="-289.735" y1="768.523" x2="-289.602" y2="768.523" gradientUnits="userSpaceOnUse">
<stop stop-color="#FDE5B0"/>
<stop offset="1" stop-color="#FDE5B0"/>
</linearGradient>
<linearGradient id="paint15_linear_9_550" x1="-289.735" y1="768.06" x2="-289.602" y2="768.06" gradientUnits="userSpaceOnUse">
<stop stop-color="#FDE5B0"/>
<stop offset="1" stop-color="#FDE5B0"/>
</linearGradient>
<linearGradient id="paint16_linear_9_550" x1="-289.201" y1="768.516" x2="-289.068" y2="768.516" gradientUnits="userSpaceOnUse">
<stop stop-color="#FDDD96"/>
<stop offset="1" stop-color="#FDDD96"/>
</linearGradient>
<linearGradient id="paint17_linear_9_550" x1="-289.696" y1="768.778" x2="-289.562" y2="768.778" gradientUnits="userSpaceOnUse">
<stop stop-color="#FDE5B0"/>
<stop offset="1" stop-color="#FDE5B0"/>
</linearGradient>
<linearGradient id="paint18_linear_9_550" x1="-289.712" y1="768.527" x2="-289.579" y2="768.527" gradientUnits="userSpaceOnUse">
<stop stop-color="#FDE5B0"/>
<stop offset="1" stop-color="#FDE5B0"/>
</linearGradient>
<linearGradient id="paint19_linear_9_550" x1="-289.696" y1="768.938" x2="-289.562" y2="768.938" gradientUnits="userSpaceOnUse">
<stop stop-color="#FDE5B0"/>
<stop offset="1" stop-color="#FDE5B0"/>
</linearGradient>
<linearGradient id="paint20_linear_9_550" x1="-289.712" y1="768.472" x2="-289.579" y2="768.472" gradientUnits="userSpaceOnUse">
<stop stop-color="#FDE5B0"/>
<stop offset="1" stop-color="#FDE5B0"/>
</linearGradient>
</defs>
</svg>
