<svg width="755" height="205" viewBox="0 0 755 205" fill="none" xmlns="http://www.w3.org/2000/svg">
<path d="M125.569 156.045L99.1021 143.193V113.701L125.569 126.553V156.045ZM98.3391 142.822L48.8501 118.791V89.298L98.3391 113.329V142.822M125.571 125.702L99.1041 112.851V83.358L125.569 96.2141V125.706M125.569 95.3651L99.1021 82.5131V53.014L125.569 65.8651V95.358M98.3391 82.1381L48.8501 58.106V28.614L98.3391 52.645V82.1381Z" fill="url(#paint0_linear_8_544)"/>
<path d="M48.461 27.9971V176.355L21.233 189.571V41.2141L48.461 27.9981" fill="#B48A41"/>
<path d="M0.333008 200.158L0 199.47L20.851 189.345V190.196L0.334015 200.159M21.617 189.824V189.387L48.084 176.54V176.973L21.617 189.824ZM48.849 176.601V175.752L77.465 161.852L77.8 162.54L48.849 176.597" fill="white"/>
<path d="M21.616 189.386V188.974L48.083 176.122V176.539L21.616 189.386Z" fill="#C5A365"/>
<path d="M146.85 76.2012L126.339 66.2402V65.3912L147.185 75.5142L146.85 76.2012ZM125.569 65.4402L99.1021 52.5792V52.1682L125.569 65.0142V65.4352M98.3391 52.2062L48.8501 28.1852V27.7651L98.3391 51.7961V52.2072" fill="white"/>
<path d="M125.569 65.868L99.102 53.014V52.575L125.569 65.436V65.864M98.339 52.645L48.848 28.614V28.1851L98.339 52.2061V52.645Z" fill="url(#paint1_linear_8_544)"/>
<path d="M48.017 28.2139L21.617 15.3939V14.5449L48.084 27.3969V28.1839L48.019 28.2149M20.852 15.0239L0.000976562 4.89893L0.333984 4.21191L20.851 14.1749V15.0239" fill="white"/>
<path d="M48.0821 28.2441L48.0171 28.2122L48.0821 28.1812V28.2441Z" fill="#C5A365"/>
<path d="M146.85 167.227L126.339 157.265V156.416L147.19 166.541L146.855 167.228M125.569 156.894L99.1021 144.042V143.606L107.502 147.69L125.567 156.453V156.894M98.3391 143.671L48.8501 119.64V119.212L98.3391 143.234V143.671Z" fill="white"/>
<path d="M125.569 156.453L107.504 147.69L99.104 143.606V143.193L125.571 156.045V156.453M98.339 143.234L48.848 119.214V118.793L98.339 142.822V143.234Z" fill="url(#paint2_linear_8_544)"/>
<path d="M20.85 106.048L-0.000976562 95.9231L0.166046 95.5791L0.333038 95.2361L20.85 105.197V106.048" fill="white"/>
<path d="M48.082 119.269L21.616 106.414V105.565L48.083 118.416V119.265" fill="#C5A365"/>
<path d="M146.85 136.886L126.339 126.923V126.074L147.19 136.198L146.855 136.886M98.3391 112.902L48.8501 88.879V88.448L98.3391 112.48V112.903" fill="white"/>
<path d="M125.569 126.553L99.1021 113.701V112.852L125.569 125.703V126.554M98.3391 113.329L48.8501 89.2979V88.8789L98.3391 112.902V113.329Z" fill="url(#paint3_linear_8_544)"/>
<path d="M20.85 75.7041L-0.000976562 65.5801L0.332031 64.8921L20.849 74.8551V75.7041" fill="white"/>
<path d="M48.082 88.928L21.615 76.076V75.2271L48.082 88.0781V88.929" fill="#C5A365"/>
<path d="M146.85 106.545L126.334 96.582V95.733L147.185 105.857L146.85 106.545ZM98.3391 82.988L48.8501 58.956V58.533L98.3391 82.554V82.987" fill="white"/>
<path d="M125.569 96.214L99.1021 83.362V82.513L125.569 95.365V96.214ZM98.3391 82.554L48.8501 58.533V58.106L98.3391 82.138V82.554" fill="url(#paint4_linear_8_544)"/>
<path d="M48.082 58.585L26.967 48.332L27.302 47.645L48.082 57.736V58.585Z" fill="#C5A365"/>
<path d="M48.848 195.022H48.083V176.973L48.848 176.601V195.022M48.461 175.938V119.453L48.848 119.641V175.752L48.461 175.939" fill="white"/>
<path d="M48.082 176.122V119.269L48.461 119.453V175.938L48.082 176.122Z" fill="#C5A365"/>
<path d="M48.082 176.973V176.54L48.461 176.356V175.939L48.8481 175.752V176.601L48.083 176.973" fill="white"/>
<path d="M48.082 176.539V176.122L48.461 175.938V176.355L48.082 176.539Z" fill="#D2B785"/>
<path d="M48.8481 118.792L48.4611 118.604V89.114L48.8481 89.3021V118.795" fill="url(#paint5_linear_8_544)"/>
<path d="M48.461 118.604L48.082 118.42V88.928L48.461 89.111V118.604" fill="#C5A365"/>
<path d="M48.8481 119.641L48.4611 119.453V119.025L48.8481 119.213V119.641Z" fill="white"/>
<path d="M48.8481 119.214L48.4611 119.026V118.605L48.8481 118.793V119.214Z" fill="url(#paint6_linear_8_544)"/>
<path d="M48.461 119.453L48.082 119.269V118.42L48.461 118.604V119.453Z" fill="#D2B785"/>
<path d="M48.8481 88.449L48.4611 88.261V58.769L48.8481 58.9561V88.449" fill="white"/>
<path d="M48.461 88.261L48.082 88.077V58.585L48.461 58.769V88.261Z" fill="#C5A365"/>
<path d="M48.8481 58.106L48.4611 57.919V28.427L48.8481 28.614V58.106Z" fill="url(#paint7_linear_8_544)"/>
<path d="M48.461 57.9202L48.082 57.7361V28.2441L48.461 28.4282V57.9202Z" fill="#C5A365"/>
<path d="M48.848 27.7651L48.083 27.3942V14.2222H48.848V27.7651Z" fill="white"/>
<path d="M48.8481 28.1851L48.461 27.997L48.082 28.181V27.394L48.847 27.765V28.1851" fill="white"/>
<path d="M48.8481 28.6141L48.4611 28.4271V27.9961L48.8481 28.1841V28.6131" fill="url(#paint8_linear_8_544)"/>
<path d="M48.461 28.4281L48.082 28.2441V28.1811L48.461 27.9971V28.4281" fill="#D2B785"/>
<path d="M48.8481 88.88L48.4611 88.693V88.261L48.8481 88.449V88.88Z" fill="white"/>
<path d="M48.8481 89.2981L48.4611 89.1101V88.6931L48.8481 88.8801V89.2991" fill="url(#paint9_linear_8_544)"/>
<path d="M48.461 89.1141L48.082 88.9311V88.0801L48.461 88.2641V89.1131" fill="#D2B785"/>
<path d="M48.8481 58.956L48.4611 58.769V58.345L48.8481 58.533V58.956Z" fill="white"/>
<path d="M48.8481 58.5329L48.4611 58.3449V57.9199L48.8481 58.1069V58.5339" fill="url(#paint10_linear_8_544)"/>
<path d="M48.461 58.7691L48.082 58.5851V57.7361L48.461 57.9201V58.7691Z" fill="#D2B785"/>
<path d="M21.6161 204.698H20.8511V190.198L21.6161 189.826V204.701M20.8511 189.348V106.048L21.2341 106.233V189.16L20.8511 189.345M21.2341 105.384L20.8511 105.197V75.704L21.2341 75.8911V105.384M21.2341 75.04L20.8511 74.855V15.022L21.6161 15.3931V41.0291L21.2331 41.2141V75.041M21.6161 14.541L20.8511 14.17V0.998047H21.6161V14.541Z" fill="white"/>
<path d="M21.233 189.159V106.233L21.616 106.418V188.974L21.233 189.159M21.616 105.568L21.233 105.383V75.89L21.616 76.075V105.568ZM21.616 75.225L21.233 75.038V41.2141L21.616 41.0291V75.2291" fill="#C5A365"/>
<path d="M20.8501 190.195V189.344L21.2331 189.159V189.571L21.6161 189.386V189.823L20.8511 190.195" fill="white"/>
<path d="M21.233 189.571V189.159L21.616 188.974V189.386L21.233 189.571Z" fill="#D2B785"/>
<path d="M21.6161 15.3921L20.8511 15.0211V14.1721L21.6161 14.5431V15.3921Z" fill="white"/>
<path d="M21.2331 106.233L20.8501 106.048V105.197L21.2331 105.384V106.233" fill="white"/>
<path d="M21.616 106.414L21.233 106.229V105.38L21.616 105.565V106.414Z" fill="#D2B785"/>
<path d="M21.2331 75.89L20.8501 75.703V74.854L21.2331 75.039V75.89" fill="white"/>
<path d="M21.616 76.076L21.233 75.8911V75.04L21.616 75.2271V76.076" fill="#D2B785"/>
<path d="M126.334 195.022H125.569V156.894L126.334 157.265V195.022M126.334 156.415L125.951 156.23V126.738L126.334 126.923V156.414M126.334 126.073L125.951 125.888V96.3951L126.334 96.5821V126.074M126.334 95.7331L125.951 95.5461V66.0541L126.334 66.2391V95.7321M126.334 65.3891L125.569 65.0171V15.9651H126.334V65.3891Z" fill="white"/>
<path d="M125.951 156.23L125.568 156.045V126.553L125.951 126.738V156.23ZM125.951 125.889L125.568 125.702V96.2141L125.951 96.3991V125.892M125.951 95.5491L125.568 95.3641V65.8711L125.951 66.0581V95.5501" fill="url(#paint11_linear_8_544)"/>
<path d="M126.334 66.2401L125.951 66.0551V65.627L125.568 65.4401V65.019L126.333 65.3911V66.2401" fill="white"/>
<path d="M125.951 66.054L125.568 65.867V65.439L125.951 65.626V66.054Z" fill="url(#paint12_linear_8_544)"/>
<path d="M126.334 157.265L125.569 156.894V156.453L125.952 156.638V156.23L126.335 156.415V157.264" fill="white"/>
<path d="M125.951 156.638L125.568 156.453V156.045L125.951 156.23V156.638Z" fill="url(#paint13_linear_8_544)"/>
<path d="M126.334 126.924L125.951 126.739V125.89L126.334 126.075V126.924Z" fill="white"/>
<path d="M125.951 126.738L125.568 126.553V125.702L125.951 125.889V126.738" fill="url(#paint14_linear_8_544)"/>
<path d="M126.334 96.5819L125.951 96.3949V95.5459L126.334 95.7329V96.5819Z" fill="white"/>
<path d="M125.951 96.3961L125.568 96.2111V95.3621L125.951 95.5471V96.3961Z" fill="url(#paint15_linear_8_544)"/>
<path d="M99.102 161.855H98.339V143.671L99.104 144.042V161.855M98.725 112.667L98.338 112.479V82.9871L98.725 83.175V112.667ZM99.104 52.1671L98.339 51.795V38.624H99.104V52.1671Z" fill="white"/>
<path d="M99.1021 143.193L98.337 142.822V113.329L99.1021 113.701V143.193M99.1021 112.852L98.7231 112.668V83.176L99.1021 83.359V112.852M99.1021 82.509L98.337 82.1381V52.645L99.1021 53.017V82.514" fill="url(#paint16_linear_8_544)"/>
<path d="M99.1021 52.5779L98.7231 52.3939L98.3361 52.2059V51.7949L99.1011 52.1669V52.5779" fill="white"/>
<path d="M99.1021 53.0141L98.337 52.6421V52.2031L98.724 52.3911L99.103 52.5751V53.0141" fill="url(#paint17_linear_8_544)"/>
<path d="M99.1021 144.042L98.337 143.671V143.234L98.724 143.422L99.103 143.606V144.042" fill="white"/>
<path d="M99.1021 143.606L98.7231 143.422L98.3361 143.234V142.822L99.1011 143.193V143.606" fill="url(#paint18_linear_8_544)"/>
<path d="M98.7231 113.09L98.3361 112.902V112.479L98.7231 112.667V113.09Z" fill="white"/>
<path d="M99.1021 113.701L98.337 113.329V112.902L98.724 113.09V112.667L99.103 112.851V113.7" fill="url(#paint19_linear_8_544)"/>
<path d="M98.7231 83.1761L98.3361 82.9882V82.5552L98.7231 82.7432V83.1761Z" fill="white"/>
<path d="M99.1021 83.3582L98.7231 83.1752V82.7422L98.3361 82.5541V82.1382L99.1011 82.5092V83.3582" fill="url(#paint20_linear_8_544)"/>
<path d="M230.612 63.4141H199.152V104.095H230.52C235.888 104.051 241.02 101.881 244.79 98.0591C248.561 94.2373 250.661 89.0764 250.632 83.7081C250.647 78.3684 248.551 73.2391 244.802 69.4377C241.052 65.6363 235.951 63.4708 230.612 63.4131V63.4141ZM230.612 107.787H199.152V119.504H195.277V59.7141H230.52C236.891 59.7135 243.002 62.238 247.516 66.7346C252.029 71.2312 254.576 77.3332 254.599 83.7041C254.6 90.0745 252.076 96.1855 247.58 100.699C243.084 105.212 236.982 107.759 230.612 107.783" fill="white"/>
<path d="M300.724 63.4141H269.082V104.095H300.633C305.953 104.054 311.039 101.904 314.775 98.1172C318.511 94.3299 320.592 89.2149 320.56 83.8951C320.56 72.8271 311.611 63.4181 300.725 63.4181L300.724 63.4141ZM308.104 106.59L319.544 117.29L317.052 120.15L303.768 107.606C302.753 107.697 301.739 107.789 300.724 107.789H269.082V119.506H265.207V59.7141H300.632C306.992 59.7948 313.064 62.3758 317.535 66.8987C322.006 71.4217 324.517 77.5231 324.525 83.8831C324.535 88.9159 322.952 93.8228 320.002 97.9005C317.052 101.978 312.887 105.018 308.104 106.583" fill="white"/>
<path d="M365.484 117.192C372.76 117.146 379.721 114.216 384.84 109.045C389.959 103.874 392.819 96.8842 392.792 89.608C392.819 82.3319 389.959 75.3422 384.84 70.1713C379.721 65.0005 372.76 62.0706 365.484 62.024C358.208 62.0706 351.248 65.0005 346.129 70.1714C341.01 75.3423 338.15 82.332 338.177 89.608C338.15 96.8841 341.009 103.874 346.128 109.045C351.247 114.216 358.208 117.146 365.484 117.192V117.192ZM365.484 58.332C373.777 58.3387 381.728 61.636 387.592 67.4999C393.456 73.3639 396.753 81.3152 396.759 89.608C396.753 97.9008 393.456 105.852 387.592 111.716C381.728 117.58 373.777 120.877 365.484 120.884C357.192 120.877 349.241 117.579 343.378 111.715C337.514 105.852 334.217 97.9005 334.211 89.608C334.217 81.3156 337.514 73.3646 343.378 67.5007C349.241 61.6367 357.192 58.3392 365.484 58.332" fill="white"/>
<path d="M462.904 119.5L411.241 65.9001V119.5H407.368V59.7141H410.688L462.351 113.314V59.7141H466.224V119.497H462.904" fill="white"/>
<path d="M524.714 104.09L506.078 65.067H505.709L487.073 104.09H524.714ZM507.093 58.79L535.968 118.482L532.555 120.141L526.555 107.78H485.228L479.228 120.141L475.815 118.482L504.692 58.79H507.092" fill="white"/>
<path d="M549.439 119.5H545.566V59.7141H549.439V119.497" fill="white"/>
<path d="M618.539 120.144L584.034 91.363L565.307 105.754V119.501H561.429V59.714H565.304V101.135L618.718 58.886L620.933 62.021L586.892 88.961L620.933 117.373L618.533 120.141" fill="white"/>
<path d="M653.867 117.192C661.143 117.146 668.104 114.216 673.223 109.045C678.342 103.874 681.202 96.8842 681.175 89.608C681.202 82.3319 678.342 75.3422 673.223 70.1713C668.104 65.0005 661.143 62.0706 653.867 62.024C646.591 62.0706 639.631 65.0005 634.512 70.1714C629.393 75.3423 626.533 82.332 626.56 89.608C626.533 96.8841 629.392 103.874 634.511 109.045C639.63 114.216 646.591 117.146 653.867 117.192V117.192ZM653.867 58.332C662.159 58.3394 670.11 61.6371 675.973 67.501C681.836 73.3649 685.133 81.3158 685.139 89.608C685.133 97.9008 681.836 105.852 675.972 111.716C670.108 117.58 662.157 120.877 653.864 120.884C645.572 120.877 637.621 117.579 631.758 111.715C625.894 105.852 622.597 97.9005 622.591 89.608C622.597 81.3156 625.894 73.3646 631.758 67.5007C637.621 61.6367 645.572 58.3392 653.864 58.332" fill="white"/>
<path d="M751.287 119.5L699.624 65.9001V119.5H695.749V59.7141H699.072L750.735 113.314V59.7141H754.61V119.497H751.289" fill="white"/>
<path d="M196.478 155.573H200.116C201.076 155.64 202.027 155.343 202.779 154.742C203.09 154.445 203.333 154.084 203.491 153.685C203.649 153.285 203.719 152.856 203.694 152.427C203.715 151.993 203.644 151.56 203.486 151.155C203.328 150.751 203.088 150.384 202.779 150.078C202.064 149.456 201.135 149.136 200.189 149.184H196.474L196.478 155.573ZM196.478 156.586V162.371H195.278V148.17H200.116C201.381 148.099 202.628 148.502 203.612 149.3C204.043 149.692 204.381 150.174 204.603 150.712C204.825 151.25 204.924 151.831 204.895 152.412C204.93 152.986 204.837 153.561 204.624 154.095C204.411 154.629 204.083 155.109 203.662 155.501C202.644 156.289 201.372 156.676 200.087 156.587H196.479" fill="#FCD376"/>
<path d="M209.257 155.431H212.933C213.825 155.474 214.697 155.165 215.362 154.571C215.665 154.286 215.903 153.94 216.061 153.556C216.219 153.172 216.293 152.758 216.278 152.343C216.303 151.907 216.23 151.472 216.064 151.068C215.899 150.664 215.645 150.302 215.321 150.009C214.559 149.414 213.605 149.119 212.639 149.18H209.256L209.257 155.431ZM213.382 156.446H209.257V162.367H208.048V148.166H212.662C213.939 148.089 215.2 148.48 216.209 149.265C216.64 149.65 216.978 150.126 217.199 150.659C217.42 151.192 217.519 151.768 217.487 152.344C217.499 153.213 217.217 154.06 216.686 154.747C216.146 155.447 215.393 155.953 214.541 156.189L218.088 162.236V162.363H216.811L213.379 156.442" fill="#FCD376"/>
<path d="M230.551 154.494C230.635 153.062 230.225 151.643 229.39 150.476C229.012 150 228.527 149.62 227.975 149.367C227.422 149.114 226.817 148.996 226.21 149.022C225.607 149 225.007 149.121 224.459 149.374C223.91 149.627 223.43 150.007 223.056 150.481C222.207 151.663 221.792 153.101 221.88 154.554V156.036C221.802 157.465 222.215 158.878 223.05 160.04C223.425 160.521 223.908 160.906 224.461 161.163C225.014 161.42 225.62 161.542 226.23 161.518C226.838 161.547 227.444 161.429 227.997 161.175C228.551 160.922 229.035 160.539 229.41 160.059C230.237 158.872 230.64 157.441 230.555 155.997L230.551 154.494ZM231.75 156.036C231.775 157.219 231.544 158.393 231.073 159.478C230.667 160.414 229.994 161.208 229.137 161.761C228.266 162.304 227.256 162.582 226.23 162.562C225.469 162.587 224.712 162.44 224.017 162.132C223.321 161.824 222.704 161.362 222.211 160.781C221.132 159.42 220.588 157.711 220.682 155.976V154.513C220.659 153.33 220.893 152.157 221.368 151.074C221.778 150.134 222.454 149.334 223.313 148.772C224.181 148.23 225.187 147.951 226.21 147.971C227.23 147.952 228.234 148.226 229.101 148.762C229.95 149.303 230.623 150.079 231.037 150.996C231.513 152.047 231.756 153.188 231.75 154.341V156.038" fill="#FCD376"/>
<path d="M241.545 148.166H242.754V158.143C242.783 158.73 242.695 159.317 242.495 159.87C242.295 160.423 241.986 160.93 241.588 161.362C241.178 161.768 240.689 162.084 240.151 162.29C239.613 162.497 239.038 162.589 238.462 162.562C237.887 162.6 237.309 162.524 236.764 162.338C236.218 162.152 235.715 161.86 235.282 161.478C234.899 161.078 234.602 160.603 234.41 160.083C234.219 159.562 234.137 159.008 234.17 158.454H235.37C235.338 158.875 235.393 159.298 235.532 159.697C235.672 160.096 235.892 160.461 236.179 160.77C236.808 161.32 237.628 161.599 238.462 161.547C238.873 161.562 239.282 161.49 239.663 161.335C240.044 161.18 240.387 160.946 240.671 160.649C241.267 159.98 241.581 159.106 241.545 158.211V148.165" fill="#FCD376"/>
<path d="M254.607 155.558H247.965V161.352H255.602V162.367H246.765V148.166H255.553V149.181H247.965V154.545H254.607V155.56" fill="#FCD376"/>
<path d="M261.823 155.316L259.824 157.285V162.366H258.624V148.165H259.824V155.822L267.1 148.165H268.611L262.662 154.485L269.069 162.366H267.606L261.821 155.315" fill="#FCD376"/>
<path d="M281.365 149.18H276.499V162.366H275.299V149.18H270.442V148.165H281.366V149.18" fill="#FCD376"/>
<path d="M285.622 162.367H284.421V148.166H285.622V162.367Z" fill="#FCD376"/>
<path d="M291.154 155.431H294.83C295.721 155.474 296.593 155.165 297.259 154.571C297.561 154.286 297.799 153.94 297.957 153.556C298.115 153.172 298.189 152.758 298.174 152.343C298.199 151.907 298.126 151.472 297.96 151.068C297.795 150.664 297.541 150.302 297.218 150.009C296.455 149.414 295.501 149.119 294.536 149.18H291.152L291.154 155.431ZM295.278 156.446H291.154V162.367H289.942V148.166H294.556C295.833 148.089 297.094 148.48 298.103 149.265C298.534 149.65 298.872 150.126 299.093 150.659C299.314 151.192 299.413 151.768 299.381 152.344C299.393 153.213 299.111 154.06 298.58 154.747C298.04 155.447 297.287 155.953 296.435 156.189L299.982 162.236V162.363H298.705L295.273 156.442" fill="#FCD376"/>
<path d="M304.742 157.363H310.438L307.589 149.624L304.742 157.363ZM310.818 158.378H304.371L302.908 162.367H301.649L307.026 148.166H308.171L313.548 162.367H312.299L310.826 158.378" fill="#FCD376"/>
<path d="M326.697 162.367H325.497L317.333 150.213V162.367H316.125V148.166H317.334L325.508 160.33V148.166H326.698V162.367" fill="#FCD376"/>
<path d="M337.078 148.166H338.287V158.143C338.316 158.73 338.228 159.317 338.028 159.87C337.828 160.422 337.52 160.93 337.121 161.362C336.712 161.767 336.222 162.084 335.684 162.29C335.146 162.497 334.571 162.589 333.995 162.562C333.42 162.6 332.843 162.524 332.297 162.338C331.751 162.152 331.247 161.86 330.815 161.478C330.431 161.078 330.134 160.603 329.943 160.083C329.751 159.562 329.669 159.008 329.703 158.454H330.903C330.871 158.875 330.926 159.298 331.065 159.697C331.205 160.095 331.425 160.461 331.712 160.77C332.342 161.321 333.165 161.6 334 161.547C334.411 161.562 334.82 161.49 335.201 161.335C335.582 161.18 335.925 160.946 336.209 160.649C336.806 159.98 337.119 159.106 337.082 158.211V148.165" fill="#FCD376"/>
<path d="M350.139 155.558H343.498V161.352H351.135V162.367H342.298V148.166H351.086V149.181H343.498V154.545H350.139V155.56" fill="#FCD376"/>
<path d="M365.799 165H364.815V148.166H365.799V165Z" fill="#FCD376"/>
<path d="M391.068 162.367H389.868L381.704 150.213V162.367H380.495V148.166H381.704L389.878 160.33V148.166H391.068V162.367Z" fill="#FCD376"/>
<path d="M396.941 157.363H402.638L399.79 149.628L396.941 157.363ZM403.018 158.378H396.57L395.107 162.367H393.848L399.226 148.166H400.37L405.748 162.367H404.498L403.026 158.378" fill="#FCD376"/>
<path d="M409.526 149.18V161.352H412.217C412.889 161.38 413.559 161.262 414.181 161.005C414.802 160.748 415.361 160.359 415.817 159.865C416.766 158.745 417.251 157.305 417.173 155.839V154.589C417.244 153.158 416.766 151.754 415.837 150.664C415.393 150.176 414.848 149.79 414.24 149.533C413.632 149.276 412.976 149.154 412.316 149.176L409.526 149.18ZM408.326 162.366V148.165H412.296C413.391 148.148 414.471 148.422 415.426 148.96C416.352 149.493 417.103 150.285 417.586 151.238C418.117 152.282 418.384 153.441 418.363 154.612V155.92C418.385 157.091 418.12 158.249 417.591 159.294C417.103 160.248 416.348 161.038 415.417 161.567C414.435 162.113 413.326 162.389 412.203 162.368H408.322" fill="#FCD376"/>
<path d="M422.216 161.352H430.985V162.367H420.765V161.46L429.191 149.181H421.017V148.166H430.674V149.016L422.216 161.354" fill="#FCD376"/>
<path d="M443.172 154.494C443.256 153.062 442.847 151.644 442.013 150.476C441.635 150 441.15 149.62 440.597 149.367C440.044 149.115 439.439 148.996 438.832 149.022C438.229 149 437.629 149.121 437.081 149.374C436.533 149.628 436.052 150.007 435.678 150.481C434.829 151.663 434.414 153.101 434.501 154.554V156.036C434.424 157.465 434.837 158.877 435.672 160.04C436.047 160.521 436.531 160.906 437.084 161.163C437.637 161.42 438.243 161.542 438.853 161.518C439.461 161.547 440.067 161.429 440.62 161.176C441.173 160.922 441.657 160.539 442.032 160.059C442.859 158.872 443.262 157.441 443.176 155.997L443.172 154.494ZM444.372 156.036C444.397 157.219 444.166 158.393 443.693 159.478C443.288 160.414 442.614 161.208 441.758 161.761C440.887 162.304 439.877 162.582 438.851 162.562C438.091 162.587 437.334 162.441 436.638 162.132C435.942 161.824 435.325 161.362 434.833 160.781C433.752 159.421 433.207 157.711 433.301 155.976V154.513C433.278 153.33 433.513 152.157 433.988 151.074C434.398 150.134 435.074 149.334 435.933 148.772C436.8 148.23 437.807 147.951 438.83 147.971C439.85 147.952 440.854 148.226 441.722 148.762C442.57 149.303 443.243 150.079 443.658 150.995C444.132 152.047 444.375 153.188 444.371 154.341V156.038" fill="#FCD376"/>
<path d="M449.073 155.431H452.749C453.641 155.474 454.513 155.165 455.178 154.571C455.481 154.286 455.719 153.94 455.877 153.556C456.035 153.172 456.109 152.758 456.094 152.343C456.118 151.908 456.045 151.472 455.88 151.068C455.715 150.664 455.461 150.303 455.138 150.009C454.375 149.415 453.421 149.12 452.455 149.18H449.072L449.073 155.431ZM453.198 156.446H449.073V162.367H447.863V148.166H452.477C453.754 148.089 455.015 148.48 456.024 149.265C456.454 149.65 456.792 150.126 457.014 150.659C457.235 151.192 457.333 151.768 457.301 152.344C457.312 153.213 457.03 154.059 456.5 154.747C455.96 155.447 455.207 155.953 454.355 156.189L457.902 162.236V162.363H456.625L453.192 156.442" fill="#FCD376"/>
<path d="M472.711 165H471.726V148.166H472.711V165Z" fill="#FCD376"/>
<path d="M488.87 162.367H487.67V148.166H488.87V162.367Z" fill="#FCD376"/>
<path d="M493.758 161.352H502.527V162.367H492.304V161.46L500.731 149.181H492.558V148.166H502.21V149.016L493.754 161.354" fill="#FCD376"/>
<path d="M509.95 160.607L510.028 160.909L510.116 160.607L514.584 148.162H515.901L510.614 162.364H509.462L504.177 148.162H505.482L509.945 160.607" fill="#FCD376"/>
<path d="M527.655 154.494C527.739 153.062 527.33 151.644 526.496 150.476C526.118 150 525.633 149.62 525.08 149.367C524.527 149.115 523.923 148.996 523.315 149.022C522.712 149 522.112 149.121 521.564 149.374C521.016 149.628 520.535 150.007 520.161 150.481C519.312 151.663 518.897 153.101 518.985 154.554V156.036C518.907 157.465 519.32 158.878 520.156 160.04C520.531 160.521 521.014 160.906 521.567 161.164C522.12 161.421 522.726 161.542 523.336 161.518C523.944 161.547 524.55 161.429 525.103 161.176C525.656 160.922 526.141 160.539 526.515 160.059C527.342 158.872 527.745 157.441 527.66 155.997L527.655 154.494ZM528.854 156.036C528.88 157.219 528.649 158.393 528.177 159.478C527.771 160.413 527.098 161.207 526.242 161.761C525.371 162.304 524.361 162.582 523.335 162.562C522.574 162.587 521.817 162.441 521.121 162.132C520.425 161.824 519.808 161.362 519.316 160.781C518.236 159.42 517.691 157.711 517.784 155.976V154.513C517.761 153.33 517.995 152.157 518.471 151.074C518.881 150.134 519.557 149.334 520.416 148.772C521.283 148.23 522.289 147.951 523.312 147.971C524.332 147.952 525.336 148.226 526.204 148.762C527.052 149.304 527.724 150.079 528.14 150.995C528.614 152.047 528.857 153.188 528.851 154.341V156.038" fill="#FCD376"/>
<path d="M536.878 155.646H533.875V161.352H536.519C537.198 161.384 537.876 161.267 538.506 161.01C539.136 160.753 539.702 160.363 540.166 159.865C541.115 158.745 541.6 157.305 541.522 155.839V154.589C541.594 153.158 541.115 151.754 540.185 150.664C539.741 150.175 539.196 149.789 538.588 149.533C537.98 149.276 537.324 149.154 536.664 149.176H533.876V154.646H536.878V155.646ZM532.675 162.366V155.646H530.909V154.65H532.675V148.165H536.645C537.74 148.148 538.82 148.422 539.775 148.96C540.702 149.493 541.453 150.285 541.936 151.238C542.465 152.283 542.731 153.441 542.711 154.612V155.92C542.733 157.091 542.469 158.249 541.941 159.294C541.453 160.247 540.697 161.037 539.767 161.567C538.785 162.113 537.676 162.389 536.553 162.368H532.672" fill="#FCD376"/>
<path d="M554.093 155.558H547.449V161.352H555.087V162.367H546.25V148.166H555.037V149.181H547.449V154.545H554.093V155.56" fill="#FCD376"/>
<path d="M568.685 162.367H567.488L559.323 150.213V162.367H558.115V148.166H559.323L567.497 160.33V148.166H568.685V162.367Z" fill="#FCD376"/>
<path d="M579.064 148.166H580.272V158.143C580.302 158.73 580.214 159.317 580.015 159.87C579.815 160.422 579.507 160.929 579.109 161.362C578.699 161.767 578.21 162.084 577.671 162.29C577.133 162.497 576.558 162.589 575.982 162.562C575.406 162.6 574.829 162.524 574.284 162.338C573.738 162.152 573.235 161.86 572.802 161.478C572.419 161.078 572.122 160.603 571.931 160.083C571.739 159.562 571.658 159.008 571.691 158.454H572.89C572.858 158.875 572.914 159.298 573.053 159.697C573.192 160.095 573.412 160.461 573.699 160.77C574.328 161.32 575.148 161.599 575.982 161.547C576.393 161.562 576.802 161.49 577.183 161.335C577.564 161.18 577.908 160.946 578.192 160.649C578.789 159.98 579.102 159.106 579.065 158.211V148.165" fill="#FCD376"/>
<path d="M592.128 155.558H585.484V161.352H593.122V162.367H584.285V148.166H593.072V149.181H585.484V154.545H592.128V155.56" fill="#FCD376"/>
<path d="M607.787 165H606.802V148.166H607.787V165Z" fill="#FCD376"/>
<path d="M625.682 155.316L623.682 157.285V162.366H622.482V148.165H623.682V155.822L630.957 148.165H632.471L626.521 154.485L632.929 162.366H631.468L625.683 155.315" fill="#FCD376"/>
<path d="M644.575 154.494C644.659 153.062 644.25 151.644 643.416 150.476C643.038 150 642.553 149.62 642 149.367C641.447 149.114 640.842 148.996 640.235 149.022C639.632 149 639.032 149.121 638.484 149.375C637.936 149.628 637.455 150.007 637.081 150.481C636.233 151.663 635.818 153.101 635.906 154.554V156.036C635.828 157.465 636.241 158.878 637.076 160.04C637.451 160.521 637.935 160.907 638.488 161.164C639.041 161.421 639.647 161.542 640.257 161.518C640.865 161.547 641.47 161.429 642.023 161.175C642.576 160.921 643.06 160.539 643.434 160.059C644.262 158.872 644.665 157.441 644.578 155.997L644.575 154.494ZM645.775 156.036C645.8 157.219 645.569 158.393 645.098 159.478C644.691 160.413 644.018 161.207 643.162 161.761C642.291 162.304 641.282 162.582 640.256 162.562C639.495 162.588 638.738 162.442 638.042 162.133C637.346 161.825 636.729 161.363 636.238 160.781C635.156 159.421 634.611 157.711 634.704 155.976V154.513C634.682 153.33 634.916 152.157 635.391 151.074C635.801 150.134 636.477 149.334 637.336 148.772C638.203 148.23 639.209 147.951 640.232 147.971C641.252 147.952 642.257 148.226 643.125 148.762C643.973 149.303 644.645 150.079 645.06 150.995C645.536 152.046 645.779 153.188 645.773 154.341V156.038" fill="#FCD376"/>
<path d="M659.875 162.367H658.673L650.509 150.213V162.367H649.3V148.166H650.509L658.682 160.33V148.166H659.875V162.367Z" fill="#FCD376"/>
<path d="M664.518 161.352H673.286V162.367H663.063V161.46L671.49 149.181H663.316V148.166H672.973V149.016L664.516 161.354" fill="#FCD376"/>
<path d="M678.143 157.363H683.84L680.993 149.628L678.143 157.363ZM684.221 158.378H677.773L676.311 162.367H675.053L680.43 148.166H681.575L686.952 162.367H685.704L684.231 158.378" fill="#FCD376"/>
<path d="M690.738 161.352H697.746V162.367H689.523V148.166H690.732V161.352" fill="#FCD376"/>
<path d="M707.506 149.18H702.64V162.366H701.439V149.18H696.583V148.165H707.507V149.18" fill="#FCD376"/>
<path d="M711.762 162.367H710.561V148.166H711.76V162.367" fill="#FCD376"/>
<path d="M726.686 162.367H725.487L717.324 150.213V162.367H716.114V148.166H717.324L725.496 160.33V148.166H726.686V162.367Z" fill="#FCD376"/>
<path d="M741.045 160.679C740.55 161.329 739.868 161.813 739.09 162.065C738.136 162.407 737.129 162.576 736.115 162.563C735.071 162.581 734.043 162.303 733.15 161.762C732.275 161.218 731.577 160.432 731.141 159.5C730.649 158.45 730.403 157.304 730.419 156.145V154.35C730.324 152.664 730.853 151.003 731.906 149.683C732.403 149.116 733.021 148.668 733.714 148.371C734.407 148.074 735.157 147.936 735.911 147.967C737.183 147.905 738.435 148.301 739.44 149.083C740.35 149.864 740.921 150.967 741.032 152.16H739.832C739.722 151.237 739.267 150.39 738.558 149.788C737.799 149.222 736.867 148.937 735.921 148.982C735.322 148.957 734.725 149.071 734.179 149.317C733.632 149.563 733.15 149.932 732.771 150.397C731.932 151.552 731.522 152.964 731.612 154.389V156.067C731.593 157.049 731.781 158.023 732.162 158.928C732.49 159.711 733.039 160.381 733.742 160.856C734.443 161.317 735.268 161.557 736.107 161.542C737.019 161.565 737.926 161.399 738.77 161.054C739.181 160.889 739.548 160.632 739.844 160.303V156.636H736.031V155.621H741.043V160.674" fill="#FCD376"/>
<defs>
<linearGradient id="paint0_linear_8_544" x1="-289.336" y1="769.498" x2="-289.259" y2="769.498" gradientUnits="userSpaceOnUse">
<stop stop-color="#FCD376"/>
<stop offset="1" stop-color="#FCD376"/>
</linearGradient>
<linearGradient id="paint1_linear_8_544" x1="-289.338" y1="769.522" x2="-289.261" y2="769.522" gradientUnits="userSpaceOnUse">
<stop stop-color="#FDDD96"/>
<stop offset="1" stop-color="#FDDD96"/>
</linearGradient>
<linearGradient id="paint2_linear_8_544" x1="-289.347" y1="769.483" x2="-289.27" y2="769.483" gradientUnits="userSpaceOnUse">
<stop stop-color="#FDDD96"/>
<stop offset="1" stop-color="#FDDD96"/>
</linearGradient>
<linearGradient id="paint3_linear_8_544" x1="-289.327" y1="769.553" x2="-289.251" y2="769.553" gradientUnits="userSpaceOnUse">
<stop stop-color="#FDDD96"/>
<stop offset="1" stop-color="#FDDD96"/>
</linearGradient>
<linearGradient id="paint4_linear_8_544" x1="-289.327" y1="769.583" x2="-289.251" y2="769.583" gradientUnits="userSpaceOnUse">
<stop stop-color="#FDDD96"/>
<stop offset="1" stop-color="#FDDD96"/>
</linearGradient>
<linearGradient id="paint5_linear_8_544" x1="-289.685" y1="769.522" x2="-289.552" y2="769.522" gradientUnits="userSpaceOnUse">
<stop stop-color="#FDDD96"/>
<stop offset="1" stop-color="#FDDD96"/>
</linearGradient>
<linearGradient id="paint6_linear_8_544" x1="-289.685" y1="769.126" x2="-289.552" y2="769.126" gradientUnits="userSpaceOnUse">
<stop stop-color="#FDE5B0"/>
<stop offset="1" stop-color="#FDE5B0"/>
</linearGradient>
<linearGradient id="paint7_linear_8_544" x1="-289.685" y1="769.51" x2="-289.552" y2="769.51" gradientUnits="userSpaceOnUse">
<stop stop-color="#FDDD96"/>
<stop offset="1" stop-color="#FDDD96"/>
</linearGradient>
<linearGradient id="paint8_linear_8_544" x1="-289.685" y1="770.233" x2="-289.552" y2="770.233" gradientUnits="userSpaceOnUse">
<stop stop-color="#FDE5B0"/>
<stop offset="1" stop-color="#FDE5B0"/>
</linearGradient>
<linearGradient id="paint9_linear_8_544" x1="-289.685" y1="770.211" x2="-289.552" y2="770.211" gradientUnits="userSpaceOnUse">
<stop stop-color="#FDE5B0"/>
<stop offset="1" stop-color="#FDE5B0"/>
</linearGradient>
<linearGradient id="paint10_linear_8_544" x1="-289.685" y1="770.29" x2="-289.552" y2="770.29" gradientUnits="userSpaceOnUse">
<stop stop-color="#FDE5B0"/>
<stop offset="1" stop-color="#FDE5B0"/>
</linearGradient>
<linearGradient id="paint11_linear_8_544" x1="-289.735" y1="769.497" x2="-289.602" y2="769.497" gradientUnits="userSpaceOnUse">
<stop stop-color="#FDDD96"/>
<stop offset="1" stop-color="#FDDD96"/>
</linearGradient>
<linearGradient id="paint12_linear_8_544" x1="-289.735" y1="769.907" x2="-289.602" y2="769.907" gradientUnits="userSpaceOnUse">
<stop stop-color="#FDE5B0"/>
<stop offset="1" stop-color="#FDE5B0"/>
</linearGradient>
<linearGradient id="paint13_linear_8_544" x1="-289.735" y1="769.162" x2="-289.602" y2="769.162" gradientUnits="userSpaceOnUse">
<stop stop-color="#FDE5B0"/>
<stop offset="1" stop-color="#FDE5B0"/>
</linearGradient>
<linearGradient id="paint14_linear_8_544" x1="-289.735" y1="769.521" x2="-289.602" y2="769.521" gradientUnits="userSpaceOnUse">
<stop stop-color="#FDE5B0"/>
<stop offset="1" stop-color="#FDE5B0"/>
</linearGradient>
<linearGradient id="paint15_linear_8_544" x1="-289.735" y1="769.058" x2="-289.602" y2="769.058" gradientUnits="userSpaceOnUse">
<stop stop-color="#FDE5B0"/>
<stop offset="1" stop-color="#FDE5B0"/>
</linearGradient>
<linearGradient id="paint16_linear_8_544" x1="-289.201" y1="769.514" x2="-289.068" y2="769.514" gradientUnits="userSpaceOnUse">
<stop stop-color="#FDDD96"/>
<stop offset="1" stop-color="#FDDD96"/>
</linearGradient>
<linearGradient id="paint17_linear_8_544" x1="-289.696" y1="769.776" x2="-289.562" y2="769.776" gradientUnits="userSpaceOnUse">
<stop stop-color="#FDE5B0"/>
<stop offset="1" stop-color="#FDE5B0"/>
</linearGradient>
<linearGradient id="paint18_linear_8_544" x1="-289.712" y1="769.525" x2="-289.579" y2="769.525" gradientUnits="userSpaceOnUse">
<stop stop-color="#FDE5B0"/>
<stop offset="1" stop-color="#FDE5B0"/>
</linearGradient>
<linearGradient id="paint19_linear_8_544" x1="-289.696" y1="769.936" x2="-289.562" y2="769.936" gradientUnits="userSpaceOnUse">
<stop stop-color="#FDE5B0"/>
<stop offset="1" stop-color="#FDE5B0"/>
</linearGradient>
<linearGradient id="paint20_linear_8_544" x1="-289.712" y1="769.47" x2="-289.579" y2="769.47" gradientUnits="userSpaceOnUse">
<stop stop-color="#FDE5B0"/>
<stop offset="1" stop-color="#FDE5B0"/>
</linearGradient>
</defs>
</svg>
